<svg style="padding: 10px;" width="200px" height="200px" viewBox="0 0 201 200" version="1.1"><title></title><desc>Created with Sketch.</desc><g id="Page-1" stroke="none" stroke-width="1" fill="none" fill-rule="evenodd"><g id="family-office-01" transform="translate(1.000000, 3.000000)"><g id="Group" transform="translate(16.260163, 75.190861)" fill-rule="nonzero"><g transform="translate(0.000000, 4.877245)" id="Shape"><path d="M26.2601626,37.4328555 L32.9268293,38.5302356 L33.9837398,30.0763443 L29.7560976,29.2634701 C29.4308943,29.0196078 29.1056911,28.8163893 28.7398374,28.6944582 L8.69918699,2.96699072 C8.08943089,1.82896688 7.03252033,0.975449003 5.6504065,0.731586752 C3.29268293,0.284505959 1.05691057,1.86961059 0.650406504,4.18630197 C0.406504065,5.56818806 0.81300813,6.90943044 1.70731707,7.88487944 L2.39837398,8.86032845 L2.4796748,8.98225957 L23.699187,36.0916131 L23.7398374,36.0509694 C24.3495935,36.660625 25.1219512,37.1077058 26.0162602,37.3109244 L26.0162602,37.3515681 L26.2195122,37.3922118 C26.2195122,37.4328555 26.2195122,37.4328555 26.2601626,37.4328555 C26.2195122,37.4328555 26.2601626,37.4328555 26.2601626,37.4328555 Z" fill="#FFFFFF"></path><path d="M32.9268293,39.0586038 C32.8861789,39.0586038 32.8861789,39.0586038 32.8455285,39.0586038 L26.1788618,37.9612237 C26.1382114,37.9612237 26.097561,37.9612237 26.0569106,37.92058 L25.9756098,37.92058 C25.8943089,37.92058 25.8130081,37.8799363 25.7723577,37.8392926 C24.9186992,37.5954303 24.1463415,37.1889932 23.5365854,36.5793376 C23.4552846,36.5386939 23.4146341,36.4980502 23.3739837,36.4574065 L2.03252033,9.22612182 L1.34146341,8.21002911 C0.365853659,7.15329269 -0.081300813,5.64947548 0.203252033,4.14565826 C0.609756098,1.86961059 2.60162602,0.203218542 4.91869919,0.203218542 C5.20325203,0.203218542 5.48780488,0.243862251 5.77235772,0.284505959 C7.23577236,0.569011918 8.45528455,1.4631735 9.14634146,2.76377218 L29.0650407,28.2880211 C29.3495935,28.4099522 29.6341463,28.5725271 29.9593496,28.8163893 L34.0650407,29.5886198 C34.3089431,29.6292635 34.5121951,29.8731257 34.4715447,30.1576317 L33.4146341,38.611523 C33.4146341,38.7334542 33.3333333,38.8553853 33.2113821,38.9366727 C33.1300813,39.0179601 33.0487805,39.0586038 32.9268293,39.0586038 Z M26.300813,36.945131 C26.300813,36.945131 26.3414634,36.945131 26.3414634,36.945131 L32.5203252,37.9612237 L33.4552846,30.4827813 L29.6747967,29.7511946 C29.5934959,29.7511946 29.5121951,29.7105509 29.4715447,29.6699072 C29.1463415,29.4260449 28.8617886,29.2634701 28.5772358,29.141539 C28.495935,29.1008953 28.4146341,29.0602516 28.3739837,28.9789641 L8.33333333,3.25149668 C7.72357724,2.15411655 6.74796748,1.4225298 5.6097561,1.21931125 C3.53658537,0.853517878 1.54471545,2.23540397 1.17886179,4.26758939 C0.975609756,5.44625693 1.30081301,6.62492448 2.11382114,7.51908607 L2.92682927,8.6571099 L24.0650407,35.6445323 C24.1056911,35.685176 24.1463415,35.685176 24.1463415,35.7258197 C24.6747967,36.2948317 25.3658537,36.660625 26.1788618,36.8638436 C26.1788618,36.9044873 26.2195122,36.9044873 26.300813,36.945131 L26.300813,36.945131 C26.2601626,36.945131 26.300813,36.945131 26.300813,36.945131 Z" fill="#1A2F50"></path></g><g transform="translate(23.983740, 0.000000)" id="Shape"><g transform="translate(13.008130, 0.000000)"><path d="M0.691056911,9.83577745 L2.64227642,3.21085297 C2.64227642,3.21085297 4.83739837,0.690943044 8.69918699,0.934805295 L4.55284553,11.0957324" fill="#FFFFFF"></path><path d="M4.51219512,11.6241006 C4.43089431,11.6241006 4.3902439,11.6241006 4.30894309,11.5834569 C4.06504065,11.4615258 3.94308943,11.1770198 4.02439024,10.9331576 L7.88617886,1.4225298 C5.08130081,1.50381721 3.37398374,3.08892184 3.00813008,3.45471522 L1.09756098,9.95770857 C1.01626016,10.2422145 0.731707317,10.3641457 0.487804878,10.2828582 C0.203252033,10.2015708 0.081300813,9.91706487 0.162601626,9.67320261 L2.11382114,3.04827813 C2.15447154,2.96699072 2.15447154,2.92634701 2.23577236,2.84505959 C2.31707317,2.72312847 4.63414634,0.162574834 8.69918699,0.406437085 C8.86178862,0.406437085 9.02439024,0.487724502 9.10569106,0.650299335 C9.18699187,0.772230461 9.18699187,0.975449003 9.14634146,1.09738013 L5,11.2583072 C4.91869919,11.5021695 4.71544715,11.6241006 4.51219512,11.6241006 Z" fill="#1A2F50"></path></g><g transform="translate(3.252033, 8.128742)"><path d="M16.1788618,2.76377218 L16.1788618,2.76377218 L7.92682927,0.52836821 L2.60162602,20.2812105 C2.31707317,20.5657165 0.772357724,24.1423628 0.569105691,24.5081562" fill="#FFFFFF"></path><path d="M0.609756098,24.9958807 C0.528455285,24.9958807 0.447154472,24.955237 0.365853659,24.9145933 C0.12195122,24.7926622 0.0406504065,24.4675125 0.203252033,24.2236502 C0.243902439,24.1423628 0.528455285,23.5327072 0.772357724,22.9636953 C1.62601626,21.0940847 1.99186992,20.3218542 2.19512195,20.0373483 L7.4796748,0.406437085 C7.56097561,0.121931125 7.84552846,-0.0406437085 8.08943089,0.0406437085 L16.3414634,2.27604767 C16.6260163,2.35733509 16.7479675,2.64184105 16.7073171,2.8857033 C16.6260163,3.17020926 16.3414634,3.29214039 16.097561,3.25149668 L8.33333333,1.17866755 L3.1300813,20.4437854 C3.08943089,20.5250728 3.04878049,20.6063602 3.00813008,20.6470039 C2.84552846,20.8502224 2.11382114,22.5166145 1.70731707,23.4107761 C1.34146341,24.1830065 1.17886179,24.5894436 1.09756098,24.7520185 C0.975609756,24.9145933 0.772357724,24.9958807 0.609756098,24.9958807 Z" fill="#1A2F50"></path></g><g transform="translate(0.000000, 8.128742)"><path d="M0.731707317,33.6529906 L8.00813008,34.6690833 L8.00813008,34.6690833 C8.69918699,34.1813588 8.37398374,35.0348767 8.69918699,34.1813588 L19.4308943,2.80441588 L11.1788618,0.569011918 L2.84552846,26.906135" fill="#FFFFFF"></path><path d="M8.00813008,35.1568078 C7.96747967,35.1568078 7.96747967,35.1568078 7.92682927,35.1568078 L0.650406504,34.1407151 C0.365853659,34.1000714 0.203252033,33.8562092 0.203252033,33.5717032 C0.243902439,33.2871972 0.487804878,33.1246224 0.772357724,33.1246224 L7.88617886,34.1000714 C8.00813008,34.018784 8.1300813,33.9781403 8.21138211,33.9781403 C8.21138211,33.9781403 8.21138211,33.9781403 8.21138211,33.9374966 L18.7804878,3.08892184 L11.504065,1.13802384 L3.29268293,26.9874224 C3.21138211,27.2312847 2.92682927,27.3938595 2.68292683,27.3125721 C2.43902439,27.2312847 2.27642276,26.9467787 2.35772358,26.7029165 L10.6910569,0.365793376 C10.7723577,0.121931125 11.0569106,-0.0406437085 11.300813,0.0406437085 L19.5528455,2.27604767 C19.6747967,2.31669138 19.796748,2.3979788 19.8780488,2.51990992 C19.9593496,2.64184105 19.9593496,2.80441588 19.9186992,2.92634701 L9.18699187,34.3032899 C8.98373984,34.7910144 8.94308943,34.9535893 8.65853659,35.0348767 C8.57723577,35.0348767 8.45528455,35.0348767 8.37398374,35.0348767 C8.37398374,35.0348767 8.33333333,35.0755204 8.33333333,35.0755204 C8.21138211,35.1161641 8.1300813,35.1568078 8.00813008,35.1568078 Z" fill="#1A2F50"></path></g></g></g><g id="XMLID_424_" transform="translate(152.439024, 146.317350)" fill-rule="nonzero"><path d="M16.7886179,0.52836821 L15.8130081,33.1652661 L15.7317073,34.3439337 L15.6097561,35.685176 C15.5691057,35.969682 15.3252033,36.2135442 15.0406504,36.2135442 L2.39837398,36.2135442 C2.11382114,36.2135442 1.82926829,35.969682 1.82926829,35.685176 L0.93495935,3.90179601 L0.772357724,1.70703576 L0.691056911,0.52836821 L16.7886179,0.52836821 L16.7886179,0.52836821 Z" id="Shape" fill="#FFFFFF"></path><path d="M15.0406504,36.7012687 L2.39837398,36.7012687 C1.82926829,36.7012687 1.34146341,36.2541879 1.34146341,35.685176 L0.447154472,3.90179601 L0.162601626,0.569011918 C0.162601626,0.447080793 0.203252033,0.284505959 0.284552846,0.203218542 C0.365853659,0.0812874169 0.528455285,0.0406437085 0.650406504,0.0406437085 L16.7886179,0.0406437085 C16.9105691,0.0406437085 17.0731707,0.0812874169 17.1544715,0.203218542 C17.2357724,0.284505959 17.3170732,0.447080793 17.2764228,0.569011918 L16.300813,33.2059098 L16.097561,35.7664634 C16.097561,36.2541879 15.6097561,36.7012687 15.0406504,36.7012687 Z M1.17886179,1.01609271 L1.42276423,3.8611523 L2.31707317,35.6445323 C2.31707317,35.6445323 2.35772358,35.685176 2.39837398,35.685176 L15.0406504,35.685176 C15.0813008,35.685176 15.1219512,35.6445323 15.1219512,35.6038886 L15.3252033,33.0839787 L16.2601626,1.01609271 L1.17886179,1.01609271 Z" id="Shape" fill="#1A2F50"></path></g><g id="Group" transform="translate(151.626016, 127.214807)" fill-rule="nonzero"><g transform="translate(0.000000, 11.380238)" id="Shape"><g><path d="M10.0406504,7.72230461 C10.0406504,7.72230461 9.14634146,1.25995496 5.93495935,0.731586752 C3.25203252,0.284505959 0.650406504,1.13802384 0.650406504,1.13802384 L0.650406504,1.13802384 C0.81300813,1.13802384 0.894308943,1.17866755 1.01626016,1.21931125 C5.04065041,1.38188609 8.69918699,7.03136156 9.51219512,7.84423573" fill="#B2DCBB"></path><path d="M9.55284553,8.33196024 C9.43089431,8.33196024 9.30894309,8.29131653 9.18699187,8.1693854 C9.02439024,8.00681057 8.7804878,7.72230461 8.45528455,7.27522382 C7.03252033,5.48690064 4.10569106,1.78832317 1.01626016,1.66639205 C0.894308943,1.66639205 0.81300813,1.62574834 0.731707317,1.62574834 C0.487804878,1.62574834 0.243902439,1.4225298 0.203252033,1.17866755 C0.162601626,0.934805295 0.284552846,0.690943044 0.528455285,0.609655627 C0.650406504,0.569011918 3.25203252,-0.243862251 6.01626016,0.203218542 C9.55284553,0.772230461 10.5284553,7.35651123 10.5284553,7.64101719 C10.5691057,7.92552315 10.3658537,8.1693854 10.0813008,8.21002911 C10,8.21002911 9.91869919,8.21002911 9.87804878,8.21002911 C9.79674797,8.29131653 9.67479675,8.33196024 9.55284553,8.33196024 Z M3.04878049,1.17866755 C5.77235772,2.31669138 8.04878049,5.16175097 9.26829268,6.7062119 C9.30894309,6.7468556 9.3495935,6.82814302 9.3902439,6.86878673 C8.94308943,4.83660131 7.84552846,1.54446092 5.85365854,1.21931125 C4.83739837,1.05673642 3.86178862,1.09738013 3.04878049,1.17866755 Z" fill="#1A2F50"></path></g><g transform="translate(0.000000, 0.406437)"><path d="M0.569105691,0.731586752 C0.894308943,1.62574834 1.82926829,3.57664634 3.61788618,4.38952051 C5.6097561,5.24303839 9.47154472,7.72230461 10,7.31586752 C9.18699187,6.50299335 5.04065041,0.650299335 0.569105691,0.731586752 Z" fill="#B2DCBB"></path><path d="M9.87804878,7.84423573 L9.87804878,7.84423573 C9.22764228,7.84423573 7.96747967,7.1939364 5.93495935,6.09655627 C5.04065041,5.60883177 4.10569106,5.12110727 3.45528455,4.83660131 C1.46341463,3.94243972 0.447154472,1.78832317 0.12195122,0.894161586 C0.081300813,0.731586752 0.081300813,0.569011918 0.162601626,0.447080793 C0.243902439,0.325149668 0.406504065,0.243862251 0.569105691,0.243862251 L0.691056911,0.243862251 C4.67479675,0.243862251 8.29268293,4.51145164 9.83739837,6.34041852 C10.0813008,6.62492448 10.2845528,6.86878673 10.3658537,6.95007415 C10.4878049,7.07200527 10.5284553,7.1939364 10.5284553,7.35651123 C10.5284553,7.51908607 10.4471545,7.64101719 10.3252033,7.72230461 C10.203252,7.80359203 10.0406504,7.84423573 9.87804878,7.84423573 Z M1.38211382,1.30059867 C1.82926829,2.19476026 2.60162602,3.41407151 3.86178862,3.94243972 C4.55284553,4.26758939 5.44715447,4.75531389 6.42276423,5.24303839 C7.07317073,5.60883177 7.88617886,6.01526885 8.53658537,6.34041852 C6.99186992,4.59273906 4.26829268,1.70703576 1.38211382,1.30059867 Z" fill="#1A2F50"></path></g></g><g transform="translate(8.130081, 11.380238)" id="Shape"><g><path d="M0.894308943,7.72230461 C0.894308943,7.72230461 1.78861789,1.25995496 5,0.731586752 C7.68292683,0.284505959 10.2845528,1.13802384 10.2845528,1.13802384 L10.2845528,1.13802384 C10.1219512,1.13802384 10.0406504,1.17866755 9.91869919,1.21931125 C5.89430894,1.38188609 2.23577236,7.03136156 1.42276423,7.84423573" fill="#B2DCBB"></path><path d="M1.38211382,8.33196024 C1.2601626,8.33196024 1.13821138,8.29131653 1.01626016,8.1693854 C0.93495935,8.1693854 0.894308943,8.21002911 0.81300813,8.1693854 C0.528455285,8.12874169 0.365853659,7.88487944 0.365853659,7.60037348 C0.406504065,7.31586752 1.34146341,0.772230461 4.87804878,0.162574834 C7.64227642,-0.284505959 10.2845528,0.569011918 10.3658537,0.569011918 C10.6097561,0.650299335 10.7317073,0.894161586 10.6910569,1.13802384 C10.6504065,1.38188609 10.4471545,1.54446092 10.203252,1.54446092 C10.0813008,1.58510463 9.95934959,1.58510463 9.83739837,1.62574834 C6.74796748,1.74767946 3.82113821,5.48690064 2.39837398,7.23458011 C2.07317073,7.64101719 1.82926829,7.92552315 1.66666667,8.12874169 C1.66666667,8.29131653 1.50406504,8.33196024 1.38211382,8.33196024 Z M6.62601626,1.09738013 C6.13821138,1.09738013 5.6097561,1.13802384 5.08130081,1.21931125 C3.08943089,1.54446092 1.99186992,4.83660131 1.54471545,6.86878673 C1.58536585,6.82814302 1.62601626,6.7468556 1.66666667,6.7062119 C2.88617886,5.16175097 5.16260163,2.31669138 7.84552846,1.17866755 C7.4796748,1.13802384 7.07317073,1.09738013 6.62601626,1.09738013 Z" fill="#1A2F50"></path></g><g transform="translate(0.000000, 0.406437)"><path d="M10.3658537,0.731586752 C10.0406504,1.62574834 9.10569106,3.57664634 7.31707317,4.38952051 C5.32520325,5.24303839 1.46341463,7.72230461 0.93495935,7.31586752 C1.74796748,6.50299335 5.89430894,0.650299335 10.3658537,0.731586752 Z" fill="#B2DCBB"></path><path d="M1.05691057,7.84423573 C0.853658537,7.84423573 0.691056911,7.80359203 0.569105691,7.6816609 C0.447154472,7.60037348 0.365853659,7.47844236 0.365853659,7.31586752 C0.365853659,7.15329269 0.406504065,7.03136156 0.528455285,6.90943044 C0.650406504,6.78749931 0.81300813,6.58428077 1.09756098,6.29977481 C2.64227642,4.47080793 6.2601626,0.203218542 10.2439024,0.203218542 L10.3658537,0.203218542 C10.5284553,0.203218542 10.6910569,0.284505959 10.7723577,0.406437085 C10.8536585,0.52836821 10.8943089,0.731586752 10.8130081,0.853517878 C10.4065041,1.95089801 9.3902439,3.94243972 7.4796748,4.7959576 C6.82926829,5.08046356 5.89430894,5.56818806 5,6.05591256 C3.00813008,7.1939364 1.70731707,7.84423573 1.05691057,7.84423573 Z M9.55284553,1.30059867 C6.66666667,1.70703576 3.90243902,4.59273906 2.39837398,6.38106223 C3.04878049,6.05591256 3.86178862,5.64947548 4.51219512,5.2836821 C5.44715447,4.75531389 6.38211382,4.26758939 7.07317073,3.98308343 C8.33333333,3.3734278 9.14634146,2.19476026 9.55284553,1.30059867 Z" fill="#1A2F50"></path></g></g><g transform="translate(3.658537, 7.315868)" id="Shape"><g transform="translate(0.000000, 0.406437)"><path d="M6.09756098,8.49453507 C6.09756098,8.49453507 7.27642276,3.12956555 4.87804878,1.74767946 C2.88617886,0.609655627 0.569105691,0.52836821 0.569105691,0.52836821 L0.569105691,0.52836821 C0.691056911,0.569011918 0.731707317,0.650299335 0.853658537,0.690943044 C3.98373984,1.99154171 5.24390244,7.51908607 5.6504065,8.41324765" fill="#B2DCBB"></path><path d="M6.09756098,8.98225957 C6.05691057,8.98225957 6.01626016,8.98225957 5.97560976,8.98225957 C5.93495935,8.98225957 5.85365854,8.94161586 5.81300813,8.94161586 C5.56910569,9.02290328 5.32520325,8.90097215 5.20325203,8.69775361 C5.12195122,8.53517878 5,8.21002911 4.87804878,7.76294832 C4.26829268,5.93398144 3.00813008,2.19476026 0.650406504,1.17866755 C0.528455285,1.13802384 0.447154472,1.09738013 0.406504065,1.05673642 C0.162601626,0.975449003 0.0406504065,0.731586752 0.081300813,0.487724502 C0.12195122,0.243862251 0.365853659,0.0812874169 0.569105691,0.0812874169 C0.650406504,0.0812874169 3.00813008,0.162574834 5.08130081,1.34124238 C7.76422764,2.84505959 6.62601626,8.37260394 6.54471545,8.61646619 C6.54471545,8.81968474 6.30081301,8.98225957 6.09756098,8.98225957 Z M2.72357724,1.4225298 C4.3495935,3.08892184 5.28455285,5.73076289 5.77235772,7.27522382 C5.97560976,5.56818806 5.97560976,2.96699072 4.59349593,2.19476026 C3.98373984,1.82896688 3.33333333,1.58510463 2.72357724,1.4225298 Z" fill="#1A2F50"></path></g><g><path d="M0.528455285,0.934805295 C0.528455285,1.74767946 0.691056911,3.57664634 1.91056911,4.71467018 C3.21138211,5.97462514 5.6097561,9.06354699 6.13821138,8.90097215 C5.6504065,8.00681057 4.06504065,2.15411655 0.528455285,0.934805295 Z" fill="#B2DCBB"></path><path d="M6.05691057,9.38869666 C5.48780488,9.38869666 4.79674797,8.69775361 3.1300813,6.78749931 C2.56097561,6.13719998 1.99186992,5.48690064 1.54471545,5.03981985 C0.243902439,3.77986489 0.0406504065,1.9102543 0.0406504065,0.894161586 C0.0406504065,0.731586752 0.12195122,0.569011918 0.243902439,0.487724502 C0.365853659,0.406437085 0.528455285,0.365793376 0.691056911,0.406437085 C3.94308943,1.50381721 5.6097561,6.05591256 6.30081301,7.96616686 C6.42276423,8.25067282 6.50406504,8.49453507 6.54471545,8.61646619 C6.62601626,8.73839732 6.62601626,8.90097215 6.54471545,9.02290328 C6.50406504,9.1448344 6.38211382,9.26676553 6.2195122,9.30740924 C6.17886179,9.38869666 6.09756098,9.38869666 6.05691057,9.38869666 Z M1.05691057,1.74767946 C1.17886179,2.56055363 1.46341463,3.61729005 2.19512195,4.34887681 C2.68292683,4.7959576 3.25203252,5.44625693 3.86178862,6.13719998 C4.18699187,6.50299335 4.59349593,6.95007415 4.95934959,7.35651123 C4.26829268,5.52754435 3.00813008,2.84505959 1.05691057,1.74767946 Z" fill="#1A2F50"></path></g></g><g transform="translate(8.943089, 5.690119)" id="Shape"><g><path d="M1.09756098,8.57582249 C1.09756098,8.57582249 -0.081300813,3.21085297 2.31707317,1.82896688 C4.30894309,0.690943044 6.62601626,0.609655627 6.62601626,0.609655627 L6.62601626,0.609655627 C6.50406504,0.650299335 6.46341463,0.731586752 6.34146341,0.772230461 C3.21138211,2.07282913 1.95121951,7.60037348 1.54471545,8.49453507" fill="#B2DCBB"></path><path d="M1.09756098,9.06354699 C0.853658537,9.06354699 0.650406504,8.90097215 0.609756098,8.6571099 C0.569105691,8.41324765 -0.609756098,2.8857033 2.07317073,1.38188609 C4.14634146,0.203218542 6.50406504,0.121931125 6.58536585,0.121931125 C6.82926829,0.121931125 7.03252033,0.284505959 7.11382114,0.52836821 C7.15447154,0.772230461 7.03252033,1.01609271 6.78861789,1.09738013 C6.70731707,1.13802384 6.62601626,1.21931125 6.50406504,1.25995496 C4.14634146,2.23540397 2.88617886,6.01526885 2.27642276,7.84423573 C2.15447154,8.25067282 2.03252033,8.57582249 1.95121951,8.77904103 C1.82926829,9.02290328 1.58536585,9.1041907 1.34146341,9.02290328 C1.30081301,9.06354699 1.2601626,9.06354699 1.17886179,9.1041907 C1.17886179,9.06354699 1.13821138,9.06354699 1.09756098,9.06354699 Z M4.47154472,1.50381721 C3.86178862,1.66639205 3.21138211,1.9102543 2.60162602,2.27604767 C1.2601626,3.04827813 1.2195122,5.64947548 1.42276423,7.35651123 C1.91056911,5.81205031 2.84552846,3.17020926 4.47154472,1.50381721 Z" fill="#1A2F50"></path></g><g transform="translate(0.406504, 0.000000)"><path d="M6.2601626,0.609655627 C6.2601626,1.4225298 6.09756098,3.25149668 4.87804878,4.38952051 C3.57723577,5.64947548 1.17886179,9.22612182 0.650406504,9.06354699 C1.09756098,8.1693854 2.72357724,1.82896688 6.2601626,0.609655627 Z" fill="#B2DCBB"></path><path d="M0.731707317,9.55127149 C0.691056911,9.55127149 0.609756098,9.55127149 0.528455285,9.51062778 C0.406504065,9.46998407 0.284552846,9.34805295 0.203252033,9.22612182 C0.162601626,9.1041907 0.162601626,8.94161586 0.203252033,8.81968474 C0.284552846,8.69775361 0.365853659,8.41324765 0.487804878,8.08809798 C1.17886179,6.05591256 2.84552846,1.21931125 6.09756098,0.121931125 C6.2601626,0.0812874169 6.42276423,0.0812874169 6.54471545,0.203218542 C6.66666667,0.325149668 6.74796748,0.447080793 6.74796748,0.609655627 C6.74796748,1.62574834 6.54471545,3.49535893 5.24390244,4.75531389 C4.71544715,5.24303839 4.02439024,6.13719998 3.37398374,6.99071786 C1.82926829,8.90097215 1.2601626,9.55127149 0.731707317,9.55127149 Z M5.69105691,1.4225298 C3.82113821,2.56055363 2.60162602,5.2836821 1.8699187,7.23458011 C2.11382114,6.95007415 2.35772358,6.62492448 2.56097561,6.38106223 C3.25203252,5.48690064 3.98373984,4.59273906 4.55284553,4.06437085 C5.32520325,3.33278409 5.6097561,2.23540397 5.69105691,1.4225298 Z" fill="#1A2F50"></path></g></g><g transform="translate(6.097561, 0.000000)" id="Shape"><g><path d="M3.41463415,10.3641457 C3.41463415,10.3641457 -0.487804878,6.46234965 0.81300813,4.02372714 C1.8699187,1.99154171 3.7804878,0.690943044 3.7804878,0.690943044 L3.7804878,0.690943044 C3.69918699,0.812874169 3.69918699,0.894161586 3.61788618,0.975449003 C1.70731707,3.77986489 3.61788618,9.1041907 3.7398374,10.0796397" fill="#B2DCBB"></path><path d="M3.41463415,10.8925139 C3.29268293,10.8925139 3.17073171,10.8518702 3.04878049,10.729939 C2.88617886,10.5673642 -1.09756098,6.54363706 0.365853659,3.8205086 C1.50406504,1.70703576 3.41463415,0.365793376 3.49593496,0.284505959 C3.69918699,0.162574834 3.98373984,0.162574834 4.14634146,0.365793376 C4.30894309,0.52836821 4.3495935,0.812874169 4.18699187,1.01609271 C4.14634146,1.09738013 4.10569106,1.21931125 4.06504065,1.30059867 C2.60162602,3.41407151 3.57723577,7.27522382 4.06504065,9.1041907 C4.18699187,9.55127149 4.26829268,9.87642116 4.26829268,10.038996 C4.30894309,10.2828582 4.14634146,10.5267205 3.90243902,10.6080079 C3.86178862,10.6486516 3.86178862,10.6892953 3.82113821,10.729939 C3.69918699,10.8112265 3.57723577,10.8925139 3.41463415,10.8925139 Z M2.43902439,2.60119734 C2.03252033,3.08892184 1.58536585,3.61729005 1.2601626,4.26758939 C0.528455285,5.64947548 1.91056911,7.84423573 3.04878049,9.18547811 C2.64227642,7.60037348 1.95121951,4.87724502 2.43902439,2.60119734 Z" fill="#1A2F50"></path></g><g transform="translate(2.032520, 0.000000)"><path d="M1.78861789,0.690943044 C2.23577236,1.38188609 3.08943089,3.00763443 2.68292683,4.59273906 C2.27642276,6.38106223 1.91056911,10.2422145 1.38211382,10.3641457 C1.2601626,9.38869666 -0.569105691,3.61729005 1.78861789,0.690943044 Z" fill="#B2DCBB"></path><path d="M1.38211382,10.8925139 C1.30081301,10.8925139 1.17886179,10.8518702 1.09756098,10.8112265 C0.975609756,10.729939 0.894308943,10.6080079 0.894308943,10.4454331 C0.894308943,10.3235019 0.81300813,10.0796397 0.772357724,9.75449003 C0.325203252,7.76294832 -0.731707317,3.04827813 1.38211382,0.365793376 C1.46341463,0.243862251 1.62601626,0.162574834 1.78861789,0.162574834 C1.95121951,0.162574834 2.11382114,0.243862251 2.19512195,0.406437085 C2.72357724,1.25995496 3.57723577,2.96699072 3.17073171,4.71467018 C3.04878049,5.32432581 2.88617886,6.17784369 2.76422764,7.03136156 C2.31707317,9.79513374 2.15447154,10.6892953 1.54471545,10.8925139 C1.50406504,10.8518702 1.42276423,10.8925139 1.38211382,10.8925139 Z M1.74796748,1.66639205 C0.731707317,3.65793376 1.13821138,6.58428077 1.50406504,8.49453507 C1.58536585,7.96616686 1.70731707,7.35651123 1.74796748,6.86878673 C1.8699187,5.97462514 2.03252033,5.12110727 2.15447154,4.47080793 C2.43902439,3.45471522 2.11382114,2.3979788 1.74796748,1.66639205 Z" fill="#1A2F50"></path></g></g></g><path d="M173.658537,183.018619 L148.00813,183.018619 C147.723577,183.018619 147.520325,182.774757 147.520325,182.530895 C147.520325,182.287032 147.764228,182.04317 148.00813,182.04317 L173.658537,182.04317 C173.943089,182.04317 174.146341,182.287032 174.146341,182.530895 C174.146341,182.774757 173.943089,183.018619 173.658537,183.018619 Z" id="Shape" fill="#1A2F50" fill-rule="nonzero"></path><path d="M185.447154,183.018619 L177.357724,183.018619 C177.073171,183.018619 176.869919,182.774757 176.869919,182.530895 C176.869919,182.287032 177.113821,182.04317 177.357724,182.04317 L185.447154,182.04317 C185.731707,182.04317 185.934959,182.287032 185.934959,182.530895 C185.934959,182.774757 185.731707,183.018619 185.447154,183.018619 Z" id="Shape" fill="#1A2F50" fill-rule="nonzero"></path><path d="M133.902439,182.287032 C133.699187,182.287032 133.495935,182.124458 133.414634,181.921239 L121.707317,136.481573 C121.626016,136.197067 121.788618,135.953205 122.073171,135.871917 C122.357724,135.79063 122.601626,135.953205 122.682927,136.237711 L134.390244,181.677377 C134.471545,181.961883 134.308943,182.205745 134.02439,182.287032 C133.98374,182.246389 133.943089,182.287032 133.902439,182.287032 Z" id="Shape" fill="#1A2F50" fill-rule="nonzero"></path><path d="M69.3089431,182.287032 C69.2682927,182.287032 69.2276423,182.287032 69.1869919,182.287032 C68.902439,182.205745 68.7398374,181.961883 68.8211382,181.677377 L82.5203252,128.637337 C82.601626,128.352831 82.8455285,128.190256 83.1300813,128.271544 C83.4146341,128.352831 83.5772358,128.596694 83.495935,128.8812 L69.796748,181.921239 C69.7154472,182.124458 69.5121951,182.287032 69.3089431,182.287032 Z" id="Shape" fill="#1A2F50" fill-rule="nonzero"></path><g id="Group" transform="translate(69.512195, 111.770198)" fill-rule="nonzero"><path d="M9.47154472,17.2329324 C9.47154472,17.2329324 0.650406504,13.3311364 0.650406504,6.38106223 C0.650406504,-0.569011918 1.82926829,0.569011918 1.82926829,0.569011918" id="Shape" fill="#FFFFFF"></path><path d="M9.47154472,17.7206569 C9.3902439,17.7206569 9.3495935,17.7206569 9.26829268,17.6800132 C8.90243902,17.5174383 0.12195122,13.5749986 0.12195122,6.38106223 C0.12195122,1.25995496 0.731707317,0.325149668 1.34146341,0.0812874169 C1.66666667,-0.0406437085 1.99186992,0.0406437085 2.19512195,0.243862251 C2.39837398,0.447080793 2.39837398,0.772230461 2.19512195,0.934805295 C2.07317073,1.05673642 1.8699187,1.09738013 1.70731707,1.05673642 C1.54471545,1.34124238 1.13821138,2.43862251 1.13821138,6.38106223 C1.13821138,12.9246993 9.59349593,16.7045642 9.67479675,16.7452079 C9.91869919,16.867139 10.0406504,17.151645 9.91869919,17.3955072 C9.83739837,17.5987258 9.67479675,17.7206569 9.47154472,17.7206569 Z" id="Shape" fill="#1A2F50"></path></g><g id="Group" transform="translate(121.951220, 111.770198)" fill-rule="nonzero"><path d="M4.10569106,0.812874169 C4.10569106,0.812874169 8.08943089,2.64184105 7.4796748,7.43779865 C6.8699187,12.1118251 0.772357724,13.8595046 0.772357724,13.8595046" id="Shape" fill="#FFFFFF"></path><path d="M0.772357724,14.3878728 C0.569105691,14.3878728 0.365853659,14.225298 0.284552846,14.0220794 C0.203252033,13.7375735 0.365853659,13.4937112 0.609756098,13.4124238 C0.650406504,13.4124238 6.42276423,11.705388 6.95121951,7.39715494 C7.5203252,2.96699072 3.90243902,1.30059867 3.86178862,1.25995496 C3.61788618,1.13802384 3.49593496,0.853517878 3.61788618,0.609655627 C3.7398374,0.365793376 4.02439024,0.243862251 4.26829268,0.365793376 C4.30894309,0.365793376 8.57723577,2.3979788 7.92682927,7.51908607 C7.27642276,12.4776185 1.09756098,14.3065854 0.853658537,14.3472291 C0.853658537,14.3878728 0.81300813,14.3878728 0.772357724,14.3878728 Z" id="Shape" fill="#1A2F50"></path></g><g id="Group" transform="translate(86.178862, 116.241006)" fill-rule="nonzero"><path d="M5.48780488,70.1916845 L0.528455285,11.2583072 L8.94308943,1.4631735 C8.94308943,1.4631735 12.2764228,0.203218542 13.6178862,1.4631735 L21.300813,10.1609271 L19.4715447,73.0367441" id="Shape" fill="#FFFFFF"></path><path d="M19.4715447,73.5244686 C19.4715447,73.5244686 19.4715447,73.5244686 19.4715447,73.5244686 C19.1869919,73.5244686 18.9430894,73.2806064 18.9837398,72.9961004 L20.8130081,10.3235019 L13.2520325,1.78832317 C12.398374,1.01609271 10.1219512,1.58510463 9.22764228,1.86961059 L1.01626016,11.4208821 L5.97560976,70.1510408 C6.01626016,70.4355468 5.81300813,70.679409 5.52845528,70.679409 C5.24390244,70.7200527 5,70.5168342 5,70.2323282 L0.0406504065,11.298951 C0.0406504065,11.1770198 0.081300813,11.014445 0.162601626,10.9331576 L8.57723577,1.13802384 C8.61788618,1.05673642 8.69918699,1.01609271 8.7804878,0.975449003 C9.14634146,0.853517878 12.4390244,-0.325149668 13.9837398,1.05673642 L21.7073171,9.79513374 C21.7886179,9.87642116 21.8292683,9.99835228 21.8292683,10.1609271 L20,73.0367441 C20,73.3212501 19.7560976,73.5244686 19.4715447,73.5244686 Z" id="Shape" fill="#1A2F50"></path></g><g id="Group" transform="translate(73.170732, 109.331576)" fill-rule="nonzero"><path d="M8.00813008,75.5160103 L0.772357724,12.1524688 L8.00813008,4.43016422 C8.00813008,2.43862251 9.63414634,0.812874169 11.6260163,0.812874169" id="Shape" fill="#FFFFFF"></path><path d="M8.00813008,76.0443785 C7.76422764,76.0443785 7.5203252,75.84116 7.5203252,75.5972977 L0.243902439,12.1931125 C0.243902439,12.0305377 0.284552846,11.9086066 0.365853659,11.7866755 L7.4796748,4.18630197 C7.60162602,2.03218542 9.3902439,0.284505959 11.5853659,0.284505959 C11.8699187,0.284505959 12.0731707,0.52836821 12.0731707,0.772230461 C12.0731707,1.01609271 11.8292683,1.25995496 11.5853659,1.25995496 C9.87804878,1.25995496 8.49593496,2.64184105 8.49593496,4.34887681 C8.49593496,4.47080793 8.45528455,4.59273906 8.37398374,4.67402647 L1.30081301,12.2337562 L8.53658537,75.3940792 C8.57723577,75.6785852 8.37398374,75.9224474 8.08943089,75.9630911 C8.04878049,76.0443785 8.00813008,76.0443785 8.00813008,76.0443785 Z" id="Shape" fill="#1A2F50"></path></g><path d="M119.349593,189.765475 C119.349593,189.765475 119.349593,189.765475 119.349593,189.765475 C119.065041,189.765475 118.821138,189.521613 118.861789,189.237107 L121.788618,129.816005 L121.788618,129.816005 C121.788618,129.816005 121.422764,124.979404 120.365854,121.727907 C119.227642,118.273192 113.292683,112.98951 113.211382,112.948866 C113.00813,112.745647 112.96748,112.461141 113.170732,112.257923 C113.373984,112.054704 113.658537,112.014061 113.861789,112.217279 C114.105691,112.461141 120.081301,117.744823 121.300813,121.443401 C122.439024,124.816829 122.764228,129.612786 122.804878,129.816005 L119.878049,189.318394 C119.837398,189.562256 119.634146,189.765475 119.349593,189.765475 Z" id="Shape" fill="#1A2F50" fill-rule="nonzero"></path><g id="Group" transform="translate(115.040650, 0.000000)" fill-rule="nonzero"><polygon id="Rectangle-path" fill="#FFFFFF" points="0.772357724 0.690943044 78.6178862 0.690943044 78.6178862 90.5541825 0.772357724 90.5541825"></polygon><path d="M78.6178862,91.0825507 L0.772357724,91.0825507 C0.487804878,91.0825507 0.284552846,90.8386884 0.284552846,90.5948262 L0.284552846,0.690943044 C0.284552846,0.406437085 0.528455285,0.203218542 0.772357724,0.203218542 L78.6178862,0.203218542 C78.902439,0.203218542 79.1056911,0.447080793 79.1056911,0.690943044 L79.1056911,90.5541825 C79.1056911,90.8793321 78.902439,91.0825507 78.6178862,91.0825507 Z M1.2601626,90.066458 L78.0894309,90.066458 L78.0894309,1.21931125 L1.2601626,1.21931125 L1.2601626,90.066458 Z" id="Shape" fill="#1A2F50"></path></g><g id="Group" transform="translate(121.138211, 7.722305)"><g fill-rule="nonzero"><polygon id="Rectangle-path" fill="#FFFFFF" points="0.731707317 0.52836821 31.1382114 0.52836821 31.1382114 75.8818037 0.731707317 75.8818037"></polygon><path d="M31.1382114,76.3695282 L0.731707317,76.3695282 C0.447154472,76.3695282 0.243902439,76.125666 0.243902439,75.8818037 L0.243902439,0.52836821 C0.243902439,0.243862251 0.487804878,0.0406437085 0.731707317,0.0406437085 L31.1382114,0.0406437085 C31.4227642,0.0406437085 31.6260163,0.284505959 31.6260163,0.52836821 L31.6260163,75.8818037 C31.6260163,76.1663097 31.4227642,76.3695282 31.1382114,76.3695282 Z M1.2195122,75.3940792 L30.6504065,75.3940792 L30.6504065,1.05673642 L1.2195122,1.05673642 L1.2195122,75.3940792 Z" id="Shape" fill="#1A2F50"></path></g><g fill-rule="nonzero" id="Shape"><path d="M31.1382114,0.52836821 C31.1382114,0.52836821 31.1382114,49.4633932 0.731707317,64.9892898" fill="#FFFFFF"></path><path d="M0.731707317,65.517658 C0.569105691,65.517658 0.365853659,65.4363706 0.284552846,65.2331521 C0.162601626,64.9892898 0.243902439,64.7047839 0.487804878,64.542209 C30.2845528,49.3008184 30.6504065,1.01609271 30.6504065,0.52836821 C30.6504065,0.243862251 30.8943089,0.0406437085 31.1382114,0.0406437085 L31.1382114,0.0406437085 C31.4227642,0.0406437085 31.6260163,0.284505959 31.6260163,0.52836821 C31.6260163,1.01609271 31.2601626,49.9511177 0.93495935,65.4363706 C0.894308943,65.517658 0.81300813,65.517658 0.731707317,65.517658 Z" fill="#1A2F50"></path></g><g transform="translate(7.723577, 0.000000)" id="Shape"><path d="M0.691056911,0.52836821 L0.691056911,38.2863734"></path><path d="M0.691056911,38.8147416 C0.406504065,38.8147416 0.203252033,38.5708793 0.203252033,38.3270171 L0.203252033,0.52836821 C0.203252033,0.243862251 0.447154472,0.0406437085 0.691056911,0.0406437085 C0.93495935,0.0406437085 1.17886179,0.284505959 1.17886179,0.52836821 L1.17886179,38.2863734 C1.2195122,38.5708793 0.975609756,38.8147416 0.691056911,38.8147416 Z" fill="#1A2F50" fill-rule="nonzero"></path></g><g transform="translate(15.853659, 0.000000)" id="Shape"><path d="M0.772357724,0.52836821 L0.772357724,11.3802384"></path><path d="M0.772357724,11.8679629 C0.487804878,11.8679629 0.284552846,11.6241006 0.284552846,11.3802384 L0.284552846,0.52836821 C0.284552846,0.243862251 0.528455285,0.0406437085 0.772357724,0.0406437085 C1.05691057,0.0406437085 1.2601626,0.284505959 1.2601626,0.52836821 L1.2601626,11.3802384 C1.30081301,11.6647443 1.05691057,11.8679629 0.772357724,11.8679629 Z" fill="#1A2F50" fill-rule="nonzero"></path></g></g><g id="Group" transform="translate(121.138211, 7.722305)"><g fill-rule="nonzero"><polygon id="Rectangle-path" fill="#FFFFFF" points="0.731707317 0.52836821 31.1382114 0.52836821 31.1382114 75.8818037 0.731707317 75.8818037"></polygon><path d="M31.1382114,76.3695282 L0.731707317,76.3695282 C0.447154472,76.3695282 0.243902439,76.125666 0.243902439,75.8818037 L0.243902439,0.52836821 C0.243902439,0.243862251 0.487804878,0.0406437085 0.731707317,0.0406437085 L31.1382114,0.0406437085 C31.4227642,0.0406437085 31.6260163,0.284505959 31.6260163,0.52836821 L31.6260163,75.8818037 C31.6260163,76.1663097 31.4227642,76.3695282 31.1382114,76.3695282 Z M1.2195122,75.3940792 L30.6504065,75.3940792 L30.6504065,1.05673642 L1.2195122,1.05673642 L1.2195122,75.3940792 Z" id="Shape" fill="#1A2F50"></path></g><g fill-rule="nonzero" id="Shape"><path d="M31.1382114,0.52836821 C31.1382114,0.52836821 31.1382114,49.4633932 0.731707317,64.9892898" fill="#FFFFFF"></path><path d="M0.731707317,65.517658 C0.569105691,65.517658 0.365853659,65.4363706 0.284552846,65.2331521 C0.162601626,64.9892898 0.243902439,64.7047839 0.487804878,64.542209 C30.2845528,49.3008184 30.6504065,1.01609271 30.6504065,0.52836821 C30.6504065,0.243862251 30.8943089,0.0406437085 31.1382114,0.0406437085 L31.1382114,0.0406437085 C31.4227642,0.0406437085 31.6260163,0.284505959 31.6260163,0.52836821 C31.6260163,1.01609271 31.2601626,49.9511177 0.93495935,65.4363706 C0.894308943,65.517658 0.81300813,65.517658 0.731707317,65.517658 Z" fill="#1A2F50"></path></g><g transform="translate(7.723577, 0.000000)" id="Shape"><path d="M0.691056911,0.52836821 L0.691056911,38.2863734"></path><path d="M0.691056911,38.8147416 C0.406504065,38.8147416 0.203252033,38.5708793 0.203252033,38.3270171 L0.203252033,0.52836821 C0.203252033,0.243862251 0.447154472,0.0406437085 0.691056911,0.0406437085 C0.93495935,0.0406437085 1.17886179,0.284505959 1.17886179,0.52836821 L1.17886179,38.2863734 C1.2195122,38.5708793 0.975609756,38.8147416 0.691056911,38.8147416 Z" fill="#1A2F50" fill-rule="nonzero"></path></g><g transform="translate(15.853659, 0.000000)" id="Shape"><path d="M0.772357724,0.52836821 L0.772357724,11.3802384"></path><path d="M0.772357724,11.8679629 C0.487804878,11.8679629 0.284552846,11.6241006 0.284552846,11.3802384 L0.284552846,0.52836821 C0.284552846,0.243862251 0.528455285,0.0406437085 0.772357724,0.0406437085 C1.05691057,0.0406437085 1.2601626,0.284505959 1.2601626,0.52836821 L1.2601626,11.3802384 C1.30081301,11.6647443 1.05691057,11.8679629 0.772357724,11.8679629 Z" fill="#1A2F50" fill-rule="nonzero"></path></g></g><g id="Group" transform="translate(156.097561, 7.722305)"><g fill-rule="nonzero"><polygon id="Rectangle-path" fill="#FFFFFF" points="0.853658537 0.52836821 31.2601626 0.52836821 31.2601626 75.8818037 0.853658537 75.8818037"></polygon><path d="M31.2601626,76.3695282 L0.853658537,76.3695282 C0.569105691,76.3695282 0.365853659,76.125666 0.365853659,75.8818037 L0.365853659,0.52836821 C0.365853659,0.243862251 0.609756098,0.0406437085 0.853658537,0.0406437085 L31.2601626,0.0406437085 C31.5447154,0.0406437085 31.7479675,0.284505959 31.7479675,0.52836821 L31.7479675,75.8818037 C31.7479675,76.1663097 31.5447154,76.3695282 31.2601626,76.3695282 Z M1.34146341,75.3940792 L30.7723577,75.3940792 L30.7723577,1.05673642 L1.34146341,1.05673642 L1.34146341,75.3940792 L1.34146341,75.3940792 Z" id="Shape" fill="#1A2F50"></path></g><g fill-rule="nonzero" id="Shape"><path d="M0.853658537,0.52836821 C0.853658537,0.52836821 0.853658537,49.4633932 31.2601626,64.9892898" fill="#FFFFFF"></path><path d="M31.2601626,65.517658 C31.1788618,65.517658 31.097561,65.517658 31.0162602,65.4770143 C0.691056911,49.9511177 0.325203252,1.05673642 0.325203252,0.569011918 C0.325203252,0.284505959 0.569105691,0.0812874169 0.81300813,0.0812874169 C1.05691057,0.0812874169 1.30081301,0.325149668 1.30081301,0.569011918 C1.30081301,1.05673642 1.66666667,49.3414621 31.4634146,64.5828527 C31.7073171,64.7047839 31.7886179,65.0299335 31.6666667,65.2737958 C31.6260163,65.4363706 31.4227642,65.517658 31.2601626,65.517658 Z" fill="#1A2F50"></path></g><g transform="translate(22.764228, 0.000000)" id="Shape"><path d="M0.772357724,0.52836821 L0.772357724,38.2863734"></path><path d="M0.772357724,38.8147416 C0.487804878,38.8147416 0.284552846,38.5708793 0.284552846,38.3270171 L0.284552846,0.52836821 C0.284552846,0.243862251 0.528455285,0.0406437085 0.772357724,0.0406437085 C1.01626016,0.0406437085 1.2601626,0.284505959 1.2601626,0.52836821 L1.2601626,38.2863734 C1.30081301,38.5708793 1.05691057,38.8147416 0.772357724,38.8147416 Z" fill="#1A2F50" fill-rule="nonzero"></path></g><g transform="translate(14.634146, 0.000000)" id="Shape"><path d="M0.691056911,0.52836821 L0.691056911,11.3802384"></path><path d="M0.691056911,11.8679629 C0.406504065,11.8679629 0.203252033,11.6241006 0.203252033,11.3802384 L0.203252033,0.52836821 C0.203252033,0.243862251 0.447154472,0.0406437085 0.691056911,0.0406437085 C0.93495935,0.0406437085 1.17886179,0.284505959 1.17886179,0.52836821 L1.17886179,11.3802384 C1.2195122,11.6647443 0.975609756,11.8679629 0.691056911,11.8679629 Z" fill="#1A2F50" fill-rule="nonzero"></path></g></g><g id="Group" transform="translate(121.138211, 86.977536)" fill-rule="nonzero"><polygon id="Rectangle-path" fill="#B2DCBB" points="0.731707317 0.731586752 78.3333333 0.731586752 78.3333333 6.2591311 0.731707317 6.2591311"></polygon><path d="M78.3333333,6.7468556 L0.731707317,6.7468556 C0.447154472,6.7468556 0.243902439,6.50299335 0.243902439,6.2591311 L0.243902439,0.731586752 C0.243902439,0.447080793 0.487804878,0.243862251 0.731707317,0.243862251 L78.3333333,0.243862251 C78.6178862,0.243862251 78.8211382,0.487724502 78.8211382,0.731586752 L78.8211382,6.2591311 C78.8211382,6.50299335 78.5772358,6.7468556 78.3333333,6.7468556 Z M1.2195122,5.73076289 L77.804878,5.73076289 L77.804878,1.21931125 L1.2195122,1.21931125 L1.2195122,5.73076289 Z" id="Shape" fill="#1A2F50"></path></g><g id="Group" transform="translate(59.756098, 45.927391)" fill-rule="nonzero"><g transform="translate(12.601626, 21.947603)" id="Shape"><path d="M43.6585366,41.2533641 L4.14634146,41.2533641 C2.15447154,41.2533641 0.528455285,39.6276158 0.528455285,37.636074 L0.528455285,4.26758939 C0.528455285,2.27604767 2.15447154,0.650299335 4.14634146,0.650299335 L43.6585366,0.650299335 C45.6504065,0.650299335 47.2764228,2.27604767 47.2764228,4.26758939 L47.2764228,37.636074 C47.2764228,39.6682595 45.6504065,41.2533641 43.6585366,41.2533641 Z" fill="#FFFFFF"></path><path d="M43.6585366,41.7817323 L4.14634146,41.7817323 C1.8699187,41.7817323 0.0406504065,39.9527654 0.0406504065,37.6767177 L0.0406504065,4.3082331 C0.0406504065,2.03218542 1.8699187,0.203218542 4.14634146,0.203218542 L43.6585366,0.203218542 C45.9349593,0.203218542 47.7642276,2.03218542 47.7642276,4.3082331 L47.7642276,37.6767177 C47.7642276,39.9121217 45.9349593,41.7817323 43.6585366,41.7817323 Z M4.14634146,1.17866755 C2.43902439,1.17866755 1.05691057,2.56055363 1.05691057,4.26758939 L1.05691057,37.636074 C1.05691057,39.3431098 2.43902439,40.7249959 4.14634146,40.7249959 L43.6585366,40.7249959 C45.3658537,40.7249959 46.7479675,39.3431098 46.7479675,37.636074 L46.7479675,4.26758939 C46.7479675,2.56055363 45.3658537,1.17866755 43.6585366,1.17866755 L4.14634146,1.17866755 L4.14634146,1.17866755 Z" fill="#1A2F50"></path></g><g transform="translate(4.065041, 0.000000)"><g transform="translate(0.000000, 4.877245)"><g transform="translate(28.048780, 13.412424)" id="Shape"><polygon fill="#FFFFFF" points="9.14634146 12.8027682 0.691056911 12.8027682 0.691056911 0.609655627 9.14634146 2.76377218"></polygon><path d="M9.14634146,13.2904927 L0.691056911,13.2904927 C0.406504065,13.2904927 0.203252033,13.0466304 0.203252033,12.8027682 L0.203252033,0.609655627 C0.203252033,0.447080793 0.284552846,0.325149668 0.406504065,0.203218542 C0.528455285,0.121931125 0.691056911,0.0812874169 0.853658537,0.121931125 L9.30894309,2.27604767 C9.51219512,2.31669138 9.67479675,2.51990992 9.67479675,2.76377218 L9.67479675,12.8027682 C9.67479675,13.0872741 9.43089431,13.2904927 9.14634146,13.2904927 Z M1.17886179,12.2744 L8.65853659,12.2744 L8.65853659,3.12956555 L1.17886179,1.21931125 L1.17886179,12.2744 Z" fill="#1A2F50"></path></g><path d="M29.2276423,14.1440105 L29.2276423,17.2735761 C30.6097561,18.1677377 31.8292683,18.5741748 33.6585366,18.5741748 C34.9186992,18.5741748 35.6097561,18.3709562 36.7073171,17.9238754 L36.7073171,16.0949086 L29.2276423,14.1440105 Z" id="Shape" fill="#A2D3E1"></path><g transform="translate(25.203252, 0.000000)" id="Shape"><path d="M16.5853659,8.90097215 C16.5853659,13.3717801 12.9674797,17.0297138 8.45528455,17.0297138 C3.98373984,17.0297138 0.772357724,13.4124238 0.772357724,8.90097215 C0.772357724,4.43016422 3.98373984,0.772230461 8.45528455,0.772230461 C12.9674797,0.772230461 16.5853659,4.43016422 16.5853659,8.90097215 Z" fill="#FFFFFF"></path><path d="M8.45528455,17.5174383 C3.7804878,17.5174383 0.284552846,13.8188609 0.284552846,8.90097215 C0.284552846,3.98308343 3.82113821,0.284505959 8.45528455,0.284505959 C13.2113821,0.284505959 17.0731707,4.14565826 17.0731707,8.90097215 C17.0731707,13.656286 13.2113821,17.5174383 8.45528455,17.5174383 Z M8.45528455,1.30059867 C4.3495935,1.30059867 1.2601626,4.59273906 1.2601626,8.90097215 C1.2601626,13.249849 4.3495935,16.5013456 8.45528455,16.5013456 C12.6422764,16.5013456 16.0569106,13.0872741 16.0569106,8.90097215 C16.097561,4.71467018 12.6829268,1.30059867 8.45528455,1.30059867 Z" fill="#1A2F50"></path></g><g transform="translate(0.000000, 30.482781)" id="Shape"><path d="M17.4390244,21.744384 L8.41463415,15.8104026 L15.7317073,4.71467018 C16.0162602,4.26758939 15.8943089,3.65793376 15.4471545,3.3734278 L11.9105691,1.01609271 C11.4634146,0.731586752 10.8536585,0.853517878 10.5691057,1.30059867 L2.84552846,13.1685615 C2.80487805,13.2092053 2.76422764,13.2092053 2.76422764,13.249849 L1.2195122,15.6884715 L1.13821138,15.8104026 C1.09756098,15.89169 1.05691057,15.9323337 1.01626016,16.0136211 L0.975609756,16.0542648 C0.93495935,16.0949086 0.93495935,16.1355523 0.93495935,16.176196 C0.772357724,16.4607019 0.691056911,16.8264953 0.731707317,17.1922887 C0.731707317,17.7613006 1.01626016,18.2896688 1.38211382,18.6961059 C1.58536585,18.8993244 1.82926829,19.0618993 2.11382114,19.1838304 L12.9674797,26.3371231 L16.7886179,29.5886198 L17.2357724,24.0204317 L17.7642276,23.2075575 C18.0487805,22.6385456 17.8861789,22.02889 17.4390244,21.744384 Z" fill="#FFFFFF"></path><path d="M16.7479675,29.9950568 C16.6260163,29.9950568 16.504065,29.9544131 16.4227642,29.8731257 L12.601626,26.621629 L1.78861789,19.5089801 C1.54471545,19.4276926 1.2601626,19.2244741 0.975609756,18.9806119 C0.487804878,18.4928874 0.203252033,17.842588 0.162601626,17.151645 C0.162601626,16.7452079 0.243902439,16.3794145 0.406504065,15.9729774 C0.447154472,15.89169 0.487804878,15.8104026 0.528455285,15.7291152 C0.569105691,15.6478278 0.650406504,15.5665403 0.691056911,15.4852529 L2.31707317,12.9246993 C2.35772358,12.8840556 2.43902439,12.8027682 2.4796748,12.7621245 L10.1626016,0.975449003 C10.6097561,0.325149668 11.5447154,0.121931125 12.195122,0.569011918 L15.7723577,2.92634701 C16.097561,3.12956555 16.3414634,3.45471522 16.3821138,3.8611523 C16.4634146,4.22694568 16.3821138,4.63338276 16.1788618,4.95853243 L9.14634146,15.6478278 L17.7642276,21.2973032 C18.4552846,21.744384 18.6178862,22.6385456 18.1707317,23.3294887 L17.7235772,24.0204317 L17.2764228,29.4666886 C17.2764228,29.6699072 17.1544715,29.832482 16.9512195,29.8731257 C16.8699187,29.9544131 16.7886179,29.9950568 16.7479675,29.9950568 Z M1.38211382,16.2168397 C1.38211382,16.2574834 1.34146341,16.2981271 1.34146341,16.3387708 C1.2195122,16.5826331 1.17886179,16.867139 1.17886179,17.1110013 C1.17886179,17.5580821 1.38211382,17.9645191 1.66666667,18.2490251 C1.82926829,18.4115999 2.03252033,18.5335311 2.23577236,18.6148185 L13.2113821,25.8087549 L16.3414634,28.4505959 L16.7073171,23.8578569 C16.7073171,23.7765695 16.7479675,23.695282 16.7886179,23.6139946 L17.3170732,22.8011204 C17.4796748,22.5979019 17.398374,22.2727522 17.195122,22.1508211 L8.17073171,16.2168397 C8.04878049,16.1355523 7.96747967,16.0136211 7.96747967,15.89169 C7.96747967,15.7697589 7.96747967,15.6071841 8.04878049,15.5258966 L15.3658537,4.43016422 C15.4471545,4.3082331 15.4471545,4.18630197 15.4471545,4.06437085 C15.4065041,3.94243972 15.3658537,3.8205086 15.2439024,3.77986489 L11.6666667,1.4225298 C11.4634146,1.30059867 11.1382114,1.34124238 11.0162602,1.54446092 L3.29268293,13.4124238 C3.25203252,13.4530675 3.21138211,13.5343549 3.17073171,13.5749986 L1.54471545,16.0949086 C1.46341463,16.1355523 1.42276423,16.176196 1.38211382,16.2168397 C1.38211382,16.2981271 1.38211382,16.2574834 1.38211382,16.2168397 Z" fill="#1A2F50"></path></g><ellipse id="Oval" fill="#FFFFFF" cx="31.300813" cy="11.1770198" rx="1.54471545" ry="1.54446092"></ellipse><path d="M49.1869919,55.763168 C48.495935,56.8199044 47.2764228,57.5514912 45.9349593,57.5514912 L20.4878049,57.5514912 C19.0650407,57.5514912 17.8455285,56.7792607 17.1544715,55.6412369 C17.1544715,56.0070303 17.0731707,57.1856978 16.8699187,57.5108475 C17.4390244,58.9333773 16.7886179,59.9901137 17.6422764,59.94947 L49.1463415,59.94947 C49.1463415,59.94947 49.0243902,58.8927336 49.5528455,57.3889164 C49.3495935,57.1450541 49.2276423,56.047674 49.1869919,55.763168 Z" id="Shape" fill="#A2D3E1"></path><g transform="translate(2.439024, 19.508980)" id="Shape"><path d="M59.1869919,39.9121217 L47.2764228,2.92634701 C47.195122,2.76377218 47.0731707,2.56055363 46.9512195,2.43862251 L46.8699187,2.31669138 L46.8699187,2.31669138 C46.1382114,1.4631735 45.0813008,0.894161586 43.902439,0.894161586 L34.796748,0.894161586 L30.4471545,7.07200527 L26.3414634,0.894161586 L17.4796748,0.894161586 C16.0162602,0.894161586 14.7154472,1.74767946 14.0650407,2.92634701 L14.0650407,2.92634701 L0.894308943,23.0856264 L7.23577236,27.4751469 L13.8617886,17.4361509 L14.2276423,33.6529906 C14.2276423,35.8071072 15.9756098,37.5547866 18.1300813,37.5547866 L43.5772358,37.5547866 C45.7317073,37.5547866 47.4796748,35.8071072 47.4796748,33.6529906 L51.5447154,40.3998462 L59.1869919,39.9121217 L59.1869919,39.9121217 Z" fill="#DEDEDD"></path><path d="M51.5447154,40.9282144 C51.3821138,40.9282144 51.2195122,40.846927 51.097561,40.6843522 L47.7235772,35.0755204 C47.1138211,36.8231999 45.4878049,38.0831548 43.5365854,38.0831548 L18.0894309,38.0831548 C15.6504065,38.0831548 13.6585366,36.0916131 13.6585366,33.6529906 L13.3333333,19.0618993 L7.56097561,27.7596529 C7.4796748,27.881584 7.35772358,27.9628714 7.23577236,27.9628714 C7.11382114,28.0035151 6.95121951,27.9628714 6.8699187,27.881584 L0.528455285,23.4920635 C0.325203252,23.3294887 0.243902439,23.0449827 0.406504065,22.8011204 L13.5772358,2.64184105 C13.5772358,2.60119734 13.6178862,2.60119734 13.6585366,2.56055363 C14.4715447,1.21931125 15.8943089,0.365793376 17.4390244,0.365793376 L26.300813,0.365793376 C26.4634146,0.365793376 26.6260163,0.447080793 26.7073171,0.569011918 L30.4065041,6.13719998 L34.3495935,0.569011918 C34.4308943,0.447080793 34.5934959,0.365793376 34.7560976,0.365793376 L43.8617886,0.365793376 C45.1219512,0.365793376 46.300813,0.894161586 47.1544715,1.86961059 C47.195122,1.9102543 47.2357724,1.95089801 47.2764228,1.99154171 L47.3577236,2.11347284 C47.4796748,2.27604767 47.601626,2.43862251 47.7235772,2.64184105 L59.6747967,39.7089032 C59.7154472,39.871478 59.7154472,40.0340528 59.5934959,40.155984 C59.5121951,40.2779151 59.3495935,40.3592025 59.2276423,40.3592025 L51.5447154,40.9282144 C51.5447154,40.9282144 51.5447154,40.9282144 51.5447154,40.9282144 Z M47.4796748,33.1652661 C47.6422764,33.1652661 47.804878,33.2465535 47.9268293,33.4091284 L51.8292683,39.9121217 L58.5365854,39.4650409 L46.8292683,3.08892184 C46.7886179,3.00763443 46.7073171,2.8857033 46.5853659,2.72312847 L46.5447154,2.68248476 C46.5447154,2.68248476 46.504065,2.64184105 46.504065,2.64184105 C45.8536585,1.86961059 44.8780488,1.4225298 43.902439,1.4225298 L35.0813008,1.4225298 L30.8536585,7.35651123 C30.7723577,7.47844236 30.5691057,7.55972977 30.4471545,7.55972977 C30.2845528,7.55972977 30.1219512,7.47844236 30.0406504,7.35651123 L26.097561,1.4225298 L17.5203252,1.4225298 C16.300813,1.4225298 15.1626016,2.11347284 14.5528455,3.21085297 C14.5121951,3.25149668 14.4715447,3.29214039 14.4308943,3.33278409 L1.58536585,23.004339 L7.11382114,26.8248476 L13.4552846,17.1922887 C13.5772358,17.0297138 13.8211382,16.9077827 14.0243902,16.9890701 C14.2276423,17.0297138 14.3902439,17.2329324 14.3902439,17.4767946 L14.7560976,33.6936343 C14.7560976,35.6038886 16.300813,37.1077058 18.1707317,37.1077058 L43.6178862,37.1077058 C45.4878049,37.1077058 47.0325203,35.5632449 47.0325203,33.6936343 C47.0325203,33.4497721 47.195122,33.2871972 47.398374,33.2059098 C47.398374,33.1652661 47.4390244,33.1652661 47.4796748,33.1652661 Z" fill="#1A2F50"></path></g><polygon id="Shape" fill="#1A2F50" points="17.601626 55.2347998 16.7479675 55.2347998 16.7479675 59.94947 16.8292683 57.4702038"></polygon><polygon id="Shape" fill="#1A2F50" points="49.5934959 55.2347998 48.699187 55.6005932 48.699187 59.94947 49.5934959 59.94947"></polygon><g transform="translate(2.439024, 40.237271)" id="Shape"><polygon fill="#B2DCBB" points="7.11382114 6.50299335 0.853658537 2.19476026 1.8699187 0.772230461 8.1300813 5.16175097"></polygon><path d="M7.11382114,6.99071786 C7.03252033,6.99071786 6.91056911,6.95007415 6.82926829,6.90943044 L0.569105691,2.60119734 C0.447154472,2.51990992 0.365853659,2.3979788 0.365853659,2.27604767 C0.325203252,2.15411655 0.365853659,1.99154171 0.447154472,1.9102543 L1.46341463,0.52836821 C1.62601626,0.325149668 1.95121951,0.243862251 2.15447154,0.406437085 L8.41463415,4.75531389 C8.53658537,4.83660131 8.61788618,4.95853243 8.61788618,5.08046356 C8.65853659,5.20239468 8.61788618,5.36496952 8.53658537,5.44625693 L7.5203252,6.78749931 C7.39837398,6.90943044 7.27642276,6.99071786 7.11382114,6.99071786 Z M1.54471545,2.07282913 L6.99186992,5.81205031 L7.39837398,5.2836821 L1.95121951,1.50381721 L1.54471545,2.07282913 Z" fill="#1A2F50"></path></g><g transform="translate(26.016260, 19.508980)" id="Shape"><polygon fill="#B2DCBB" points="0.650406504 0.894161586 6.82926829 10.1202834 13.2113821 0.894161586 11.1788618 0.894161586 6.82926829 7.03136156 2.72357724 0.894161586"></polygon><path d="M6.82926829,10.6080079 C6.82926829,10.6080079 6.82926829,10.6080079 6.82926829,10.6080079 C6.66666667,10.6080079 6.50406504,10.5267205 6.42276423,10.4047894 L0.243902439,1.17866755 C0.12195122,1.01609271 0.12195122,0.812874169 0.203252033,0.650299335 C0.284552846,0.487724502 0.447154472,0.365793376 0.650406504,0.365793376 L2.72357724,0.365793376 C2.88617886,0.365793376 3.04878049,0.447080793 3.1300813,0.569011918 L6.82926829,6.13719998 L10.7723577,0.569011918 C10.8536585,0.447080793 11.0162602,0.365793376 11.1788618,0.365793376 L13.2113821,0.365793376 C13.4146341,0.365793376 13.5772358,0.487724502 13.6585366,0.650299335 C13.7398374,0.812874169 13.7398374,1.01609271 13.6178862,1.17866755 L7.23577236,10.4047894 C7.15447154,10.5267205 6.99186992,10.6080079 6.82926829,10.6080079 Z M1.58536585,1.38188609 L6.82926829,9.22612182 L12.2764228,1.38188609 L11.4634146,1.38188609 L7.23577236,7.31586752 C7.15447154,7.43779865 6.95121951,7.51908607 6.82926829,7.51908607 C6.66666667,7.51908607 6.50406504,7.43779865 6.42276423,7.31586752 L2.4796748,1.38188609 L1.58536585,1.38188609 Z" fill="#1A2F50"></path></g></g><g transform="translate(23.577236, 11.786675)" id="Shape"><path d="M1.95121951,0.650299335 C1.2195122,0.650299335 0.609756098,1.25995496 0.609756098,1.99154171 C0.609756098,2.72312847 1.2195122,3.33278409 1.95121951,3.33278409" fill="#FFFFFF"></path><path d="M1.95121951,3.8611523 C0.93495935,3.8611523 0.12195122,3.04827813 0.12195122,2.03218542 C0.12195122,1.01609271 0.93495935,0.203218542 1.95121951,0.203218542 C2.23577236,0.203218542 2.43902439,0.447080793 2.43902439,0.690943044 C2.43902439,0.975449003 2.19512195,1.17866755 1.95121951,1.17866755 C1.50406504,1.17866755 1.09756098,1.54446092 1.09756098,2.03218542 C1.09756098,2.51990992 1.46341463,2.8857033 1.95121951,2.8857033 C2.23577236,2.8857033 2.43902439,3.12956555 2.43902439,3.3734278 C2.4796748,3.61729005 2.23577236,3.8611523 1.95121951,3.8611523 Z" fill="#1A2F50"></path></g><g transform="translate(41.056911, 11.786675)" id="Shape"><path d="M0.731707317,3.33278409 C1.46341463,3.33278409 2.07317073,2.72312847 2.07317073,1.99154171 C2.07317073,1.25995496 1.46341463,0.650299335 0.731707317,0.650299335" fill="#FFFFFF"></path><path d="M0.731707317,3.8611523 C0.447154472,3.8611523 0.243902439,3.61729005 0.243902439,3.3734278 C0.243902439,3.08892184 0.487804878,2.8857033 0.731707317,2.8857033 C1.17886179,2.8857033 1.58536585,2.51990992 1.58536585,2.03218542 C1.58536585,1.54446092 1.2195122,1.17866755 0.731707317,1.17866755 C0.447154472,1.17866755 0.243902439,0.934805295 0.243902439,0.690943044 C0.243902439,0.406437085 0.487804878,0.203218542 0.731707317,0.203218542 C1.74796748,0.203218542 2.56097561,1.01609271 2.56097561,2.03218542 C2.56097561,3.04827813 1.74796748,3.8611523 0.731707317,3.8611523 Z" fill="#1A2F50"></path></g><path d="M24.8780488,12.0711814 L24.8780488,5.16175097 C24.8780488,5.16175097 24.5934959,4.06437085 26.6666667,4.06437085 C28.7398374,4.06437085 39.2682927,2.51990992 39.2682927,2.51990992 C42.3577236,2.51990992 42.0325203,4.3082331 42.0325203,4.3082331 L42.0325203,12.3963311 C36.8699187,14.3472291 29.2276423,9.30740924 29.2276423,9.30740924 C29.2276423,9.30740924 28.2113821,12.6401933 24.8780488,12.0711814 Z" id="Shape" fill="#1A2F50"></path><path d="M41.7886179,4.63338276 C41.7886179,-1.13802384 30.8130081,0.203218542 30.8130081,0.203218542 C26.1382114,0.203218542 24.8373984,4.75531389 24.8373984,4.75531389 L24.8373984,6.46234965 L24.8373984,12.4776185 L26.9918699,9.99835228 L27.0731707,6.99071786 L29.1463415,6.2591311" id="Shape" fill="#1A2F50"></path><g transform="translate(26.016260, 29.669907)" id="Shape"><g><path d="M44.3089431,27.8409403 L1.70731707,27.8409403 C1.09756098,27.8409403 0.609756098,27.3532158 0.609756098,26.7435602 L0.609756098,1.58510463 C0.609756098,0.975449003 1.09756098,0.487724502 1.70731707,0.487724502 L44.3089431,0.487724502 C44.9186992,0.487724502 45.4065041,0.975449003 45.4065041,1.58510463 L45.4065041,26.7435602 C45.4065041,27.3532158 44.9186992,27.8409403 44.3089431,27.8409403 Z" fill="#FFFFFF"></path><path d="M44.3089431,28.3286648 L1.70731707,28.3286648 C0.853658537,28.3286648 0.12195122,27.6377218 0.12195122,26.7435602 L0.12195122,1.58510463 C0.12195122,0.731586752 0.81300813,0 1.70731707,0 L44.3089431,0 C45.1626016,0 45.8943089,0.690943044 45.8943089,1.58510463 L45.8943089,26.7435602 C45.8943089,27.597078 45.1626016,28.3286648 44.3089431,28.3286648 Z M1.70731707,1.01609271 C1.38211382,1.01609271 1.13821138,1.25995496 1.13821138,1.58510463 L1.13821138,26.7435602 C1.13821138,27.0687098 1.38211382,27.3125721 1.70731707,27.3125721 L44.3089431,27.3125721 C44.6341463,27.3125721 44.8780488,27.0687098 44.8780488,26.7435602 L44.8780488,1.58510463 C44.8780488,1.25995496 44.6341463,1.01609271 44.3089431,1.01609271 L1.70731707,1.01609271 Z" fill="#1A2F50"></path></g><g transform="translate(18.699187, 13.005987)"><path d="M6.91056911,19.3870489 L1.74796748,19.3870489 C1.13821138,19.3870489 0.650406504,18.8993244 0.650406504,18.2896688 L0.650406504,1.78832317 C0.650406504,1.17866755 1.13821138,0.690943044 1.74796748,0.690943044 L6.91056911,0.690943044 C7.5203252,0.690943044 8.00813008,1.17866755 8.00813008,1.78832317 L8.00813008,18.2896688 C7.96747967,18.8993244 7.4796748,19.3870489 6.91056911,19.3870489 Z" fill="#B2DCBB"></path><path d="M6.91056911,19.8747734 L1.74796748,19.8747734 C0.894308943,19.8747734 0.162601626,19.1838304 0.162601626,18.2896688 L0.162601626,1.78832317 C0.162601626,0.934805295 0.853658537,0.203218542 1.74796748,0.203218542 L6.91056911,0.203218542 C7.76422764,0.203218542 8.49593496,0.894161586 8.49593496,1.78832317 L8.49593496,18.2896688 C8.45528455,19.1431867 7.76422764,19.8747734 6.91056911,19.8747734 Z M1.74796748,1.17866755 C1.42276423,1.17866755 1.17886179,1.4225298 1.17886179,1.74767946 L1.17886179,18.2896688 C1.17886179,18.6148185 1.42276423,18.8586807 1.74796748,18.8586807 L6.91056911,18.8586807 C7.23577236,18.8586807 7.4796748,18.6148185 7.4796748,18.2896688 L7.4796748,1.78832317 C7.4796748,1.4631735 7.23577236,1.21931125 6.91056911,1.21931125 L1.74796748,1.17866755 L1.74796748,1.17866755 Z" fill="#1A2F50"></path></g><g transform="translate(13.414634, 31.295656)"><path d="M17.9268293,0.690943044 L1.2601626,0.690943044 C0.894308943,0.690943044 0.609756098,0.975449003 0.609756098,1.34124238 L0.609756098,2.19476026 C0.609756098,2.56055363 0.894308943,2.84505959 1.2601626,2.84505959 L17.9268293,2.84505959 C18.2926829,2.84505959 18.5772358,2.56055363 18.5772358,2.19476026 L18.5772358,1.34124238 C18.6178862,0.975449003 18.2926829,0.690943044 17.9268293,0.690943044 Z" fill="#B2DCBB"></path><path d="M17.9268293,3.3734278 L1.2601626,3.3734278 C0.609756098,3.3734278 0.081300813,2.84505959 0.081300813,2.19476026 L0.081300813,1.34124238 C0.081300813,0.690943044 0.609756098,0.162574834 1.2601626,0.162574834 L17.9268293,0.162574834 C18.5772358,0.162574834 19.1056911,0.690943044 19.1056911,1.34124238 L19.1056911,2.19476026 C19.1056911,2.84505959 18.5772358,3.3734278 17.9268293,3.3734278 Z M1.2601626,1.17866755 C1.17886179,1.17866755 1.09756098,1.25995496 1.09756098,1.34124238 L1.09756098,2.19476026 C1.09756098,2.27604767 1.17886179,2.35733509 1.2601626,2.35733509 L17.9268293,2.35733509 C18.0081301,2.35733509 18.0894309,2.27604767 18.0894309,2.19476026 L18.0894309,1.34124238 C18.0894309,1.25995496 18.0081301,1.17866755 17.9268293,1.17866755 L1.2601626,1.17866755 Z" fill="#1A2F50"></path></g></g></g><g transform="translate(0.406504, 62.184874)"><polygon id="Rectangle-path" fill="#FFFFFF" points="0.731707317 0.772230461 85.0813008 0.772230461 85.0813008 4.47080793 0.731707317 4.47080793"></polygon><path d="M85.0813008,4.95853243 L0.731707317,4.95853243 C0.447154472,4.95853243 0.243902439,4.71467018 0.243902439,4.47080793 L0.243902439,0.772230461 C0.243902439,0.487724502 0.487804878,0.284505959 0.731707317,0.284505959 L85.0813008,0.284505959 C85.3658537,0.284505959 85.5691057,0.52836821 85.5691057,0.772230461 L85.5691057,4.47080793 C85.5691057,4.75531389 85.3658537,4.95853243 85.0813008,4.95853243 Z M1.2195122,3.98308343 L84.5528455,3.98308343 L84.5528455,1.25995496 L1.2195122,1.25995496 L1.2195122,3.98308343 Z" id="Shape" fill="#1A2F50"></path></g><g transform="translate(18.699187, 55.275444)" id="Shape"><path d="M1.95121951,1.25995496 C1.95121951,1.25995496 6.50406504,-0.406437085 7.96747967,1.95089801 C9.51219512,4.43016422 9.55284553,7.15329269 9.55284553,7.15329269 L0.528455285,7.27522382 L1.95121951,1.25995496 L1.95121951,1.25995496 Z" fill="#FFFFFF"></path><path d="M0.528455285,7.76294832 C0.365853659,7.76294832 0.243902439,7.6816609 0.12195122,7.55972977 C0.0406504065,7.43779865 7.24073579e-15,7.27522382 0.0406504065,7.11264898 L1.46341463,1.09738013 C1.50406504,0.934805295 1.62601626,0.812874169 1.78861789,0.731586752 C1.8699187,0.690943044 3.45528455,0.121931125 5.12195122,0.121931125 C6.66666667,0.121931125 7.80487805,0.650299335 8.41463415,1.62574834 C10,4.18630197 10.0406504,6.95007415 10.0406504,7.07200527 C10.0406504,7.35651123 9.83739837,7.55972977 9.55284553,7.55972977 L0.528455285,7.76294832 C0.528455285,7.76294832 0.528455285,7.76294832 0.528455285,7.76294832 Z M2.39837398,1.66639205 L1.17886179,6.7468556 L9.02439024,6.62492448 C8.94308943,5.7714066 8.61788618,3.90179601 7.56097561,2.19476026 C7.15447154,1.50381721 6.30081301,1.17866755 5.12195122,1.17866755 C4.02439024,1.17866755 2.88617886,1.50381721 2.39837398,1.66639205 Z" fill="#1A2F50"></path></g><g transform="translate(0.000000, 66.249245)"><g><polygon id="Rectangle-path" fill="#B2DCBB" transform="translate(8.340671, 40.441494) rotate(-80.618686) translate(-8.340671, -40.441494) " points="-31.7192745 39.1409286 48.400616 39.1409286 48.400616 41.742059 -31.7192745 41.742059"></polygon><path d="M3.08943089,80.6777613 C3.04878049,80.6777613 3.04878049,80.6777613 3.00813008,80.6777613 L0.447154472,80.2713242 C0.325203252,80.2306805 0.203252033,80.1900368 0.12195122,80.0681057 C0.0406504065,79.9461745 -4.29170588e-15,79.8242434 0.0406504065,79.7023123 L13.1300813,0.650299335 C13.1707317,0.365793376 13.4146341,0.203218542 13.699187,0.243862251 L16.2601626,0.650299335 C16.3821138,0.690943044 16.504065,0.731586752 16.5853659,0.853517878 C16.6666667,0.975449003 16.7073171,1.09738013 16.6666667,1.21931125 L3.57723577,80.2713242 C3.53658537,80.5151865 3.33333333,80.6777613 3.08943089,80.6777613 Z M1.09756098,79.3365189 L2.68292683,79.5803812 L15.6097561,1.50381721 L14.0243902,1.25995496 L1.09756098,79.3365189 Z" id="Shape" fill="#1A2F50"></path></g><g transform="translate(69.918699, 0.000000)"><polygon id="Rectangle-path" fill="#B2DCBB" transform="translate(8.377037, 40.544339) rotate(-9.403924) translate(-8.377037, -40.544339) " points="7.07617212 0.366443501 9.67790105 0.366443501 9.67790105 80.7222338 7.07617212 80.7222338"></polygon><path d="M13.6178862,80.9216236 C13.495935,80.9216236 13.4146341,80.8809798 13.3333333,80.8403361 C13.2113821,80.7590487 13.1707317,80.6371176 13.1300813,80.5151865 L0.0406504065,1.21931125 C7.26849136e-15,1.09738013 0.0406504065,0.934805295 0.12195122,0.853517878 C0.203252033,0.731586752 0.325203252,0.690943044 0.447154472,0.650299335 L3.00813008,0.243862251 C3.29268293,0.203218542 3.53658537,0.365793376 3.57723577,0.650299335 L16.6666667,79.9461745 C16.7073171,80.2306805 16.5447154,80.4745428 16.2601626,80.5151865 L13.699187,80.9216236 C13.699187,80.9216236 13.6585366,80.9216236 13.6178862,80.9216236 Z M1.09756098,1.54446092 L14.0243902,79.8242434 L15.6097561,79.5803812 L2.68292683,1.30059867 L1.09756098,1.54446092 Z" id="Shape" fill="#1A2F50"></path></g></g></g><g id="Group" transform="translate(54.471545, 66.249245)" fill-rule="nonzero"><path d="M0.569105691,14.7943099 L5.12195122,0.894161586 L11.6260163,1.38188609 L7.88617886,13.3311364 L7.88617886,13.3311364 C7.84552846,13.3311364 1.54471545,13.4124238 0.569105691,14.7943099 Z" id="Shape" fill="#B2DCBB"></path><path d="M0.569105691,15.2820344 C0.487804878,15.2820344 0.406504065,15.2820344 0.325203252,15.2413907 C0.12195122,15.1194595 9.71445147e-17,14.8755973 0.081300813,14.631735 L4.63414634,0.731586752 C4.71544715,0.487724502 4.91869919,0.365793376 5.16260163,0.406437085 L11.6666667,0.894161586 C11.8292683,0.894161586 11.9512195,0.975449003 12.0325203,1.13802384 C12.1138211,1.25995496 12.1544715,1.4225298 12.0731707,1.54446092 L8.82113821,12.1118251 C8.7804878,12.2744 7.76422764,14.9975284 7.60162602,15.0381721 C6.46341463,15.4446092 2.35772358,14.7943099 0.975609756,15.0788158 C0.853658537,15.200747 0.731707317,15.2820344 0.569105691,15.2820344 Z M5.44715447,1.4225298 L1.2601626,13.9814357 C2.92682927,13.9001483 6.38211382,14.0220794 7.07317073,13.7782172 L10.8943089,1.78832317 L5.44715447,1.4225298 Z" id="Shape" fill="#1A2F50"></path></g><g id="Group" transform="translate(0.000000, 82.913165)" fill-rule="nonzero"><path d="M5.44715447,0.690943044 C4.10569106,0.690943044 2.88617886,1.21931125 1.99186992,2.19476026 C1.09756098,3.17020926 0.650406504,4.43016422 0.772357724,5.7714066 L4.43089431,54.1374197 C5.12195122,61.8597243 10.9349593,67.8749931 18.6178862,68.7691547 C19.2682927,68.8504421 19.9186992,68.8910858 20.5284553,68.8910858 L55.9756098,68.8910858 C58.4552846,68.8910858 60.4471545,66.8589004 60.4471545,64.4202779 L60.4471545,63.0790355 C60.4471545,57.714066 56.0569106,53.3245455 50.6910569,53.3245455 L27.8455285,53.3245455 C23.3333333,53.3245455 19.5934959,49.910474 19.2276423,45.3990224 L16.5853659,8.61646619 C16.1788618,4.06437085 12.4390244,0.650299335 7.88617886,0.650299335 L5.44715447,0.690943044 L5.44715447,0.690943044 Z" id="Shape" fill="#FFFFFF"></path><path d="M55.9756098,69.3788103 L20.5284553,69.3788103 C19.8780488,69.3788103 19.2682927,69.3381666 18.5772358,69.2568792 C10.6504065,68.3627176 4.63414634,62.1442302 3.94308943,54.1780634 L0.284552846,5.81205031 C0.162601626,4.34887681 0.650406504,2.92634701 1.62601626,1.86961059 C2.60162602,0.772230461 3.98373984,0.203218542 5.44715447,0.203218542 L7.88617886,0.203218542 C12.6829268,0.203218542 16.6666667,3.8205086 17.0731707,8.61646619 L19.7154472,45.3990224 C20.0813008,49.625968 23.5772358,52.836821 27.8455285,52.836821 L50.7317073,52.836821 C56.3821138,52.836821 60.9756098,57.4295601 60.9756098,63.0790355 L60.9756098,64.4202779 C60.9756098,67.1434064 58.7398374,69.3788103 55.9756098,69.3788103 Z M5.44715447,1.17866755 C4.26829268,1.17866755 3.17073171,1.66639205 2.35772358,2.51990992 C1.54471545,3.41407151 1.17886179,4.51145164 1.2601626,5.73076289 L4.91869919,54.096776 C5.56910569,61.5752183 11.2195122,67.4279123 18.6585366,68.2814302 C19.3089431,68.3627176 19.9186992,68.4033613 20.4878049,68.4033613 L55.9349593,68.4033613 C58.1300813,68.4033613 59.9186992,66.6150382 59.9186992,64.4202779 L59.9186992,63.0790355 C59.9186992,57.998572 55.7723577,53.8529137 50.6504065,53.8529137 L27.8455285,53.8529137 C23.0487805,53.8529137 19.1463415,50.2356237 18.699187,45.4803098 L16.0569106,8.69775361 C15.6910569,4.43016422 12.1544715,1.21931125 7.88617886,1.21931125 L5.44715447,1.17866755 L5.44715447,1.17866755 Z" id="Shape" fill="#1A2F50"></path></g><g id="Group" transform="translate(8.130081, 151.194595)"><g id="Shape"><path d="M10.203252,0.609655627 L0.609756098,41.2533641"></path><path d="M0.609756098,41.7410886 C0.569105691,41.7410886 0.528455285,41.7410886 0.487804878,41.7410886 C0.203252033,41.6598012 0.0406504065,41.4159389 0.12195122,41.131433 L9.75609756,0.52836821 C9.83739837,0.243862251 10.0813008,0.0812874169 10.3658537,0.162574834 C10.6504065,0.243862251 10.8130081,0.487724502 10.7317073,0.772230461 L1.09756098,41.3752952 C1.05691057,41.5785138 0.81300813,41.7410886 0.609756098,41.7410886 Z" fill="#1A2F50" fill-rule="nonzero"></path></g><g transform="translate(37.804878, 0.000000)" id="Shape"><path d="M0.731707317,0.650299335 L10.6097561,41.1720767"></path><path d="M10.6097561,41.7004449 C10.3658537,41.7004449 10.1626016,41.53787 10.1219512,41.3346515 L0.243902439,0.812874169 C0.162601626,0.52836821 0.325203252,0.284505959 0.609756098,0.203218542 C0.894308943,0.121931125 1.13821138,0.284505959 1.2195122,0.569011918 L11.097561,41.0907893 C11.1788618,41.3752952 11.0162602,41.6191575 10.7317073,41.7004449 C10.6910569,41.6598012 10.6504065,41.7004449 10.6097561,41.7004449 Z" fill="#1A2F50" fill-rule="nonzero"></path></g><g transform="translate(3.252033, 26.011973)" id="Shape"><path d="M0.853658537,0.812874169 L41.1382114,0.812874169"></path><path d="M41.1382114,1.30059867 L0.853658537,1.30059867 C0.569105691,1.30059867 0.365853659,1.05673642 0.365853659,0.812874169 C0.365853659,0.52836821 0.609756098,0.325149668 0.853658537,0.325149668 L41.1382114,0.325149668 C41.4227642,0.325149668 41.6260163,0.569011918 41.6260163,0.812874169 C41.6260163,1.05673642 41.4227642,1.30059867 41.1382114,1.30059867 Z" fill="#1A2F50" fill-rule="nonzero"></path></g></g><g id="Group" transform="translate(24.796748, 113.802384)" fill-rule="nonzero"><g id="Shape"><path d="M66.8699187,73.3212501 L57.7235772,13.6969298 C57.7235772,13.6969298 56.3414634,6.50299335 49.1056911,6.50299335 C43.699187,6.50299335 20.4065041,6.13719998 20.4065041,6.13719998 L20.4065041,0.853517878 L0.731707317,1.21931125 L2.4796748,16.6639205 C2.96747967,18.7773933 4.30894309,22.719833 7.76422764,22.719833 L40.2845528,22.719833 L58.0081301,77.101115" fill="#DEDEDD"></path><path d="M58.0081301,77.6294832 C57.804878,77.6294832 57.601626,77.507552 57.5203252,77.2636898 L39.8780488,23.2075575 L7.80487805,23.2075575 C4.06504065,23.2075575 2.56097561,19.1431867 2.03252033,16.7452079 L0.243902439,1.25995496 C0.243902439,1.13802384 0.284552846,0.975449003 0.365853659,0.853517878 C0.447154472,0.731586752 0.609756098,0.690943044 0.731707317,0.690943044 L20.4065041,0.325149668 C20.5284553,0.325149668 20.6910569,0.365793376 20.7723577,0.487724502 C20.8536585,0.569011918 20.9349593,0.690943044 20.9349593,0.853517878 L20.9349593,5.64947548 C24.3495935,5.69011918 44.2276423,5.97462514 49.1463415,5.97462514 C56.7073171,5.97462514 58.2520325,13.4937112 58.2520325,13.5749986 L67.398374,73.2399627 C67.4390244,73.5244686 67.2357724,73.7683309 66.9918699,73.8089746 C66.7073171,73.8496183 66.4634146,73.6463997 66.4227642,73.4025375 L57.2764228,13.7782172 C57.2357724,13.5343549 55.8536585,6.99071786 49.1463415,6.99071786 C43.7804878,6.99071786 20.6504065,6.66556819 20.4065041,6.62492448 C20.1219512,6.62492448 19.9186992,6.38106223 19.9186992,6.13719998 L19.9186992,1.34124238 L1.30081301,1.70703576 L3.00813008,16.5826331 C3.49593496,18.6554622 4.75609756,22.1914648 7.80487805,22.1914648 L40.3252033,22.1914648 C40.5284553,22.1914648 40.7317073,22.3133959 40.8130081,22.5572582 L58.5365854,76.9385401 C58.6178862,77.1824024 58.495935,77.4669083 58.2113821,77.5888395 C58.1300813,77.6294832 58.0894309,77.6294832 58.0081301,77.6294832 Z" fill="#1A2F50"></path></g><g transform="translate(55.691057, 73.158675)"><polygon id="Rectangle-path" fill="#B2DCBB" points="0.528455285 0.447080793 16.300813 0.447080793 16.300813 4.14565826 0.528455285 4.14565826"></polygon><path d="M16.300813,4.67402647 L0.528455285,4.67402647 C0.243902439,4.67402647 0.0406504065,4.43016422 0.0406504065,4.18630197 L0.0406504065,0.487724502 C0.0406504065,0.203218542 0.284552846,0 0.528455285,0 L16.300813,0 C16.5853659,0 16.7886179,0.243862251 16.7886179,0.487724502 L16.7886179,4.18630197 C16.7886179,4.43016422 16.5853659,4.67402647 16.300813,4.67402647 Z M1.01626016,3.65793376 L15.8130081,3.65793376 L15.8130081,0.975449003 L1.01626016,0.975449003 L1.01626016,3.65793376 Z" id="Shape" fill="#1A2F50"></path></g></g><g id="Group" transform="translate(22.357724, 113.802384)" fill-rule="nonzero"><g id="Shape"><path d="M66.6666667,73.4431812 L57.5203252,13.8188609 C57.5203252,13.8188609 56.1382114,6.62492448 48.902439,6.62492448 C43.495935,6.62492448 24.3089431,6.2591311 24.3089431,6.2591311 L22.8455285,0.853517878 L0.528455285,1.34124238 L2.27642276,16.7858516 C2.76422764,18.8993244 4.10569106,22.8417642 7.56097561,22.8417642 L40.0406504,22.8417642 L57.804878,77.2230461" fill="#DEDEDD"></path><path d="M57.804878,77.7107706 C57.601626,77.7107706 57.398374,77.5888395 57.3170732,77.3449772 L39.6747967,23.2888449 L7.56097561,23.2888449 C3.82113821,23.2888449 2.31707317,19.2244741 1.78861789,16.8264953 L-7.10542736e-15,1.34124238 C-7.10542736e-15,1.21931125 0.0406504065,1.05673642 0.12195122,0.934805295 C0.203252033,0.812874169 0.365853659,0.772230461 0.487804878,0.772230461 L22.804878,0.284505959 C23.0487805,0.243862251 23.2520325,0.447080793 23.2926829,0.650299335 L24.6747967,5.69011918 C27.398374,5.73076289 43.9430894,6.01526885 48.902439,6.01526885 C56.4634146,6.01526885 58.0081301,13.5343549 58.0081301,13.6156423 L67.1544715,73.2806064 C67.195122,73.5651123 66.9918699,73.8089746 66.7479675,73.8496183 C66.4634146,73.890262 66.2195122,73.6870434 66.1788618,73.4431812 L57.0325203,13.8188609 C56.9918699,13.5749986 55.6097561,7.03136156 48.902439,7.03136156 C43.5365854,7.03136156 24.4715447,6.66556819 24.3089431,6.66556819 C24.1056911,6.66556819 23.902439,6.50299335 23.8211382,6.29977481 L22.4390244,1.30059867 L1.05691057,1.74767946 L2.76422764,16.6232768 C3.25203252,18.6961059 4.51219512,22.2321085 7.56097561,22.2321085 L40.0406504,22.2321085 C40.2439024,22.2321085 40.4471545,22.3540397 40.5284553,22.5979019 L58.2520325,76.9791838 C58.3333333,77.2230461 58.2113821,77.507552 57.9268293,77.6294832 C57.9268293,77.7107706 57.8861789,77.7107706 57.804878,77.7107706 Z" fill="#1A2F50"></path></g><g transform="translate(55.284553, 73.158675)"><polygon id="Rectangle-path" fill="#B2DCBB" points="0.731707317 0.569011918 16.504065 0.569011918 16.504065 4.26758939 0.731707317 4.26758939"></polygon><path d="M16.504065,4.75531389 L0.731707317,4.75531389 C0.447154472,4.75531389 0.243902439,4.51145164 0.243902439,4.26758939 L0.243902439,0.569011918 C0.243902439,0.284505959 0.487804878,0.0812874169 0.731707317,0.0812874169 L16.504065,0.0812874169 C16.7886179,0.0812874169 16.9918699,0.325149668 16.9918699,0.569011918 L16.9918699,4.26758939 C16.9918699,4.55209535 16.7886179,4.75531389 16.504065,4.75531389 Z M1.2195122,3.77986489 L16.0162602,3.77986489 L16.0162602,1.09738013 L1.2195122,1.09738013 L1.2195122,3.77986489 Z" id="Shape" fill="#1A2F50"></path></g></g><g id="Group" transform="translate(19.512195, 66.249245)" fill-rule="nonzero"><polygon id="Shape" fill="#FFFFFF" points="11.300813 15.4446092 2.15447154 15.0788158 0.731707317 1.74767946 9.71544715 0.812874169"></polygon><path d="M11.3414634,15.9729774 C11.3414634,15.9729774 11.300813,15.9729774 11.3414634,15.9729774 C11.300813,15.9729774 11.300813,15.9729774 11.3414634,15.9729774 L2.15447154,15.6071841 C1.91056911,15.6071841 1.70731707,15.4039655 1.66666667,15.1601033 L0.243902439,1.82896688 C0.203252033,1.54446092 0.406504065,1.30059867 0.691056911,1.25995496 L9.67479675,0.284505959 C9.79674797,0.284505959 9.95934959,0.325149668 10.0406504,0.406437085 C10.1626016,0.487724502 10.203252,0.609655627 10.2439024,0.731586752 L11.8292683,15.2413907 C11.8699187,15.2820344 11.8699187,15.3633218 11.8699187,15.4446092 C11.8292683,15.7291152 11.6260163,15.9729774 11.3414634,15.9729774 Z M2.64227642,14.5910913 L10.7723577,14.916241 L9.30894309,1.34124238 L1.30081301,2.19476026 L2.64227642,14.5910913 Z" id="Shape" fill="#1A2F50"></path></g><g id="Group" transform="translate(15.853659, 77.223046)" fill-rule="nonzero"><path d="M0.81300813,9.06354699 L4.22764228,38.0831548 C4.3902439,39.7089032 5.85365854,40.8875707 7.4796748,40.7249959 L26.6666667,38.6521667 C28.2926829,38.4895919 29.4715447,37.0264184 29.3089431,35.4006701 L28.4552846,27.5157906 L27.2764228,17.5987258 C27.2764228,17.5987258 27.8861789,12.3556874 24.0243902,10.2015708 C20.1626016,8.04745428 8.57723577,0.772230461 8.57723577,0.772230461 C8.57723577,0.772230461 -0.162601626,1.16573418e-14 0.81300813,9.06354699 Z" id="Shape" fill="#FFFFFF"></path><path d="M7.19512195,41.2533641 L7.19512195,41.2533641 C5.40650407,41.2533641 3.94308943,39.9121217 3.7398374,38.1644422 L0.325203252,9.1448344 C0.0406504065,6.34041852 0.569105691,4.18630197 1.95121951,2.64184105 C3.86178862,0.487724502 6.8699187,0.284505959 8.04878049,0.284505959 C8.41463415,0.284505959 8.61788618,0.284505959 8.61788618,0.284505959 C8.69918699,0.284505959 8.7804878,0.325149668 8.82113821,0.365793376 C8.94308943,0.447080793 20.4471545,7.64101719 24.2276423,9.79513374 C28.1707317,11.989894 27.804878,16.9890701 27.7642276,17.6393695 L28.9430894,27.4751469 L29.796748,35.3600264 C30,37.2702807 28.6178862,38.9773164 26.7073171,39.180535 L7.5203252,41.2533641 C7.43902439,41.2533641 7.31707317,41.2533641 7.19512195,41.2533641 Z M8.04878049,1.25995496 C6.99186992,1.25995496 4.3495935,1.4631735 2.68292683,3.29214039 C1.50406504,4.59273906 1.05691057,6.54363706 1.30081301,9.02290328 L4.71544715,38.0425111 C4.83739837,39.2618224 5.93495935,40.2372714 7.15447154,40.2372714 L7.15447154,40.2372714 C7.23577236,40.2372714 7.31707317,40.2372714 7.43902439,40.2372714 L26.6260163,38.1644422 C27.9674797,38.0018674 28.9430894,36.7825562 28.8211382,35.4413138 L27.9674797,27.5564343 L26.7886179,17.6800132 C26.7886179,17.6393695 26.7886179,17.5987258 26.7886179,17.5580821 C26.7886179,17.5174383 27.3170732,12.5995496 23.7804878,10.6486516 C20.1219512,8.61646619 9.59349593,2.03218542 8.41463415,1.25995496 C8.33333333,1.25995496 8.21138211,1.25995496 8.04878049,1.25995496 Z" id="Shape" fill="#1A2F50"></path></g><g id="Group" transform="translate(16.666667, 55.681881)" fill-rule="nonzero"><path d="M15.7317073,4.3082331 C16.2195122,8.81968474 19.1056911,16.5013456 10.0813008,17.4767946 C5.56910569,17.9645191 1.50406504,14.7130225 1.01626016,10.1609271 C0.528455285,5.64947548 3.7804878,1.58510463 8.33333333,1.09738013 C12.804878,0.609655627 15.2439024,-0.203218542 15.7317073,4.3082331 Z" id="Shape" fill="#FFFFFF"></path><path d="M9.14634146,18.0458066 C4.67479675,18.0458066 0.93495935,14.6723788 0.447154472,10.2422145 C-0.081300813,5.44625693 3.41463415,1.13802384 8.21138211,0.609655627 C8.65853659,0.569011918 9.10569106,0.487724502 9.55284553,0.447080793 C10.6097561,0.325149668 11.5447154,0.203218542 12.3170732,0.203218542 C14.7560976,0.203218542 15.8943089,1.38188609 16.1788618,4.26758939 C16.2601626,4.91788872 16.3821138,5.64947548 16.504065,6.42170594 C16.9918699,9.30740924 17.601626,12.8840556 15.7723577,15.3226781 C14.6341463,16.8264953 12.7642276,17.6800132 10.0813008,17.9645191 C9.79674797,18.0458066 9.47154472,18.0458066 9.14634146,18.0458066 Z M12.3577236,1.21931125 C11.6260163,1.21931125 10.7317073,1.34124238 9.67479675,1.4631735 C9.22764228,1.50381721 8.7804878,1.58510463 8.33333333,1.62574834 C6.2601626,1.82896688 4.43089431,2.84505959 3.1300813,4.47080793 C1.82926829,6.09655627 1.2601626,8.08809798 1.46341463,10.1609271 C1.91056911,14.3878728 5.69105691,17.4767946 10,17.0297138 C12.398374,16.7858516 14.0243902,16.0136211 15,14.7536662 C16.5853659,12.6401933 16.0569106,9.42934036 15.5691057,6.62492448 C15.4471545,5.85269402 15.3252033,5.08046356 15.2439024,4.43016422 C14.9186992,1.70703576 14.0243902,1.21931125 12.3577236,1.21931125 Z" id="Shape" fill="#1A2F50"></path></g><g id="Group" transform="translate(17.886179, 75.190861)" fill-rule="nonzero"><g transform="translate(0.000000, 4.877245)" id="Shape"><path d="M26.504065,37.4328555 L33.1707317,38.5302356 L34.2276423,30.0763443 L30,29.2634701 C29.6747967,29.0196078 29.3495935,28.8163893 28.9837398,28.6944582 L8.94308943,2.96699072 C8.33333333,1.82896688 7.27642276,0.975449003 5.89430894,0.731586752 C3.53658537,0.284505959 1.30081301,1.86961059 0.894308943,4.18630197 C0.650406504,5.56818806 1.05691057,6.90943044 1.95121951,7.88487944 L2.64227642,8.86032845 L2.72357724,8.98225957 L23.9430894,36.0916131 L23.9837398,36.0509694 C24.5934959,36.660625 25.3658537,37.1077058 26.2601626,37.3109244 L26.2601626,37.3515681 L26.4634146,37.3922118 C26.4634146,37.4328555 26.4634146,37.4328555 26.504065,37.4328555 C26.504065,37.4328555 26.504065,37.4328555 26.504065,37.4328555 Z" fill="#FFFFFF"></path><path d="M33.2113821,39.0586038 C33.1707317,39.0586038 33.1707317,39.0586038 33.1300813,39.0586038 L26.4634146,37.9612237 C26.4227642,37.9612237 26.3821138,37.9612237 26.3414634,37.92058 L26.2601626,37.92058 C26.1788618,37.92058 26.097561,37.8799363 26.0569106,37.8392926 C25.203252,37.5954303 24.4308943,37.1889932 23.8211382,36.5793376 C23.7398374,36.5386939 23.699187,36.4980502 23.6585366,36.4574065 L2.31707317,9.22612182 L1.62601626,8.21002911 C0.650406504,7.15329269 0.203252033,5.64947548 0.487804878,4.14565826 C0.894308943,1.86961059 2.88617886,0.203218542 5.20325203,0.203218542 C5.48780488,0.203218542 5.77235772,0.243862251 6.05691057,0.284505959 C7.5203252,0.569011918 8.7398374,1.4631735 9.43089431,2.76377218 L29.3495935,28.2880211 C29.6341463,28.4099522 29.9186992,28.5725271 30.2439024,28.8163893 L34.3495935,29.5886198 C34.5934959,29.6292635 34.796748,29.8731257 34.7560976,30.1576317 L33.699187,38.611523 C33.699187,38.7334542 33.6178862,38.8553853 33.495935,38.9366727 C33.4146341,39.0179601 33.2926829,39.0586038 33.2113821,39.0586038 Z M26.5447154,36.945131 C26.5447154,36.945131 26.5853659,36.945131 26.5853659,36.945131 L32.7642276,37.9612237 L33.699187,30.4827813 L29.9186992,29.7511946 C29.8373984,29.7511946 29.7560976,29.7105509 29.7154472,29.6699072 C29.3902439,29.4260449 29.1056911,29.2634701 28.8211382,29.141539 C28.7398374,29.1008953 28.6585366,29.0602516 28.6178862,28.9789641 L8.57723577,3.25149668 C7.96747967,2.15411655 6.99186992,1.4225298 5.85365854,1.21931125 C3.7804878,0.853517878 1.78861789,2.23540397 1.42276423,4.26758939 C1.2195122,5.44625693 1.54471545,6.62492448 2.35772358,7.51908607 L3.17073171,8.6571099 L24.3089431,35.6445323 C24.3495935,35.685176 24.3902439,35.685176 24.3902439,35.7258197 C24.9186992,36.2948317 25.6097561,36.660625 26.4227642,36.8638436 C26.4227642,36.9044873 26.4634146,36.9044873 26.5447154,36.945131 L26.5447154,36.945131 C26.5447154,36.945131 26.5447154,36.945131 26.5447154,36.945131 Z" fill="#1A2F50"></path></g><g transform="translate(24.390244, 0.000000)" id="Shape"><g transform="translate(13.008130, 0.000000)"><path d="M0.528455285,9.83577745 L2.4796748,3.21085297 C2.4796748,3.21085297 4.67479675,0.690943044 8.53658537,0.934805295 L4.3902439,11.0957324" fill="#FFFFFF"></path><path d="M4.3902439,11.6241006 C4.30894309,11.6241006 4.26829268,11.6241006 4.18699187,11.5834569 C3.94308943,11.4615258 3.82113821,11.1770198 3.90243902,10.9331576 L7.76422764,1.4225298 C4.95934959,1.50381721 3.25203252,3.08892184 2.88617886,3.45471522 L0.975609756,9.95770857 C0.894308943,10.2422145 0.609756098,10.3641457 0.365853659,10.2828582 C0.081300813,10.2015708 -0.0406504065,9.91706487 0.0406504065,9.67320261 L1.99186992,3.04827813 C2.03252033,2.96699072 2.03252033,2.92634701 2.11382114,2.84505959 C2.19512195,2.72312847 4.51219512,0.162574834 8.57723577,0.406437085 C8.7398374,0.406437085 8.90243902,0.487724502 8.98373984,0.650299335 C9.06504065,0.772230461 9.06504065,0.975449003 9.02439024,1.09738013 L4.87804878,11.2583072 C4.75609756,11.5021695 4.59349593,11.6241006 4.3902439,11.6241006 Z" fill="#1A2F50"></path></g><g transform="translate(2.845528, 8.128742)"><path d="M16.4634146,2.76377218 L16.4634146,2.76377218 L8.21138211,0.52836821 L2.88617886,20.2812105 C2.60162602,20.5657165 1.05691057,24.1423628 0.853658537,24.5081562" fill="#FFFFFF"></path><path d="M0.894308943,24.9958807 C0.81300813,24.9958807 0.731707317,24.955237 0.650406504,24.9145933 C0.406504065,24.7926622 0.325203252,24.4675125 0.487804878,24.2236502 C0.528455285,24.1423628 0.81300813,23.5327072 1.05691057,22.9636953 C1.91056911,21.0940847 2.27642276,20.3218542 2.4796748,20.0373483 L7.76422764,0.406437085 C7.84552846,0.121931125 8.1300813,-0.0406437085 8.37398374,0.0406437085 L16.6260163,2.27604767 C16.9105691,2.35733509 17.0325203,2.64184105 16.9918699,2.8857033 C16.9105691,3.17020926 16.6260163,3.29214039 16.3821138,3.25149668 L8.61788618,1.17866755 L3.41463415,20.4437854 C3.37398374,20.5250728 3.33333333,20.6063602 3.29268293,20.6470039 C3.1300813,20.8502224 2.39837398,22.5166145 1.99186992,23.4107761 C1.62601626,24.1830065 1.46341463,24.5894436 1.38211382,24.7520185 C1.2195122,24.9145933 1.05691057,24.9958807 0.894308943,24.9958807 Z" fill="#1A2F50"></path></g><g transform="translate(0.000000, 8.128742)"><path d="M0.569105691,33.6529906 L7.84552846,34.6690833 L7.84552846,34.6690833 C8.53658537,34.1813588 8.21138211,35.0348767 8.53658537,34.1813588 L19.2682927,2.80441588 L11.0162602,0.569011918 L2.68292683,26.906135" fill="#FFFFFF"></path><path d="M7.84552846,35.1568078 C7.80487805,35.1568078 7.80487805,35.1568078 7.76422764,35.1568078 L0.487804878,34.1407151 C0.203252033,34.1000714 0.0406504065,33.8562092 0.0406504065,33.5717032 C0.081300813,33.2871972 0.325203252,33.1246224 0.609756098,33.1246224 L7.72357724,34.1407151 C7.84552846,34.0594277 7.96747967,34.018784 8.04878049,34.018784 C8.04878049,34.018784 8.04878049,34.018784 8.04878049,33.9781403 L18.6178862,3.12956555 L11.3414634,1.17866755 L3.1300813,27.0280661 C3.04878049,27.2719284 2.76422764,27.4345032 2.5203252,27.3532158 C2.27642276,27.2719284 2.11382114,26.9874224 2.19512195,26.7435602 L10.5691057,0.406437085 C10.6504065,0.162574834 10.9349593,-9.32587341e-15 11.1788618,0.0812874169 L19.4308943,2.31669138 C19.5528455,2.35733509 19.6747967,2.43862251 19.7560976,2.56055363 C19.8373984,2.68248476 19.8373984,2.84505959 19.796748,2.96699072 L9.06504065,34.3439337 C8.86178862,34.8316582 8.82113821,34.994233 8.53658537,35.0755204 C8.45528455,35.0755204 8.33333333,35.0755204 8.25203252,35.0755204 C8.25203252,35.0755204 8.21138211,35.1161641 8.21138211,35.1161641 C8.04878049,35.1161641 7.96747967,35.1568078 7.84552846,35.1568078 Z" fill="#1A2F50"></path></g></g></g><path d="M21.4634146,74.5405613 C21.4634146,74.5405613 26.504065,76.6133905 29.5934959,74.9469984 L29.3902439,73.0773878 C29.3902439,73.0773878 25.4065041,74.7844236 21.2601626,72.4270885 L21.4634146,74.5405613 Z" id="Shape" fill="#A2D3E1" fill-rule="nonzero"></path><g id="Group" transform="translate(103.658537, 186.961059)" fill-rule="nonzero"><polygon id="Rectangle-path" fill="#B2DCBB" points="0.609756098 0.447080793 19.1869919 0.447080793 19.1869919 4.14565826 0.609756098 4.14565826"></polygon><path d="M19.1869919,4.67402647 L0.609756098,4.67402647 C0.325203252,4.67402647 0.12195122,4.43016422 0.12195122,4.18630197 L0.12195122,0.487724502 C0.12195122,0.203218542 0.365853659,0 0.609756098,0 L19.1869919,0 C19.4715447,0 19.6747967,0.243862251 19.6747967,0.487724502 L19.6747967,4.18630197 C19.6747967,4.43016422 19.4715447,4.67402647 19.1869919,4.67402647 Z M1.09756098,3.65793376 L18.699187,3.65793376 L18.699187,0.975449003 L1.09756098,0.975449003 L1.09756098,3.65793376 Z" id="Shape" fill="#1A2F50"></path></g><path d="M122.723577,129.246993 C122.520325,129.246993 122.317073,129.125062 122.276423,128.921843 C122.154472,128.677981 122.317073,128.352831 122.560976,128.271544 C126.341463,126.767727 128.902439,123.150437 128.943089,119.207997 C128.943089,118.923491 129.186992,118.760916 129.471545,118.720272 C129.756098,118.720272 129.95935,118.964135 129.95935,119.248641 C129.878049,123.556874 127.073171,127.580601 122.926829,129.206349 C122.845528,129.246993 122.764228,129.246993 122.723577,129.246993 Z" id="Shape" fill="#1A2F50" fill-rule="nonzero"></path><g id="Group" transform="translate(86.178862, 126.808370)" fill="#1A2F50" fill-rule="nonzero"><path d="M11.4634146,1.58510463 C5.32520325,1.58510463 0.81300813,1.09738013 0.731707317,1.09738013 C0.447154472,1.05673642 0.243902439,0.812874169 0.284552846,0.52836821 C0.325203252,0.243862251 0.569105691,0.0812874169 0.853658537,0.0812874169 C0.93495935,0.0812874169 10.8943089,1.17866755 21.2195122,0.121931125 C21.504065,0.0812874169 21.7479675,0.284505959 21.7886179,0.569011918 C21.8292683,0.853517878 21.6260163,1.09738013 21.3414634,1.13802384 C17.8861789,1.4631735 14.4715447,1.58510463 11.4634146,1.58510463 Z" id="Shape"></path><path d="M11.300813,6.29977481 C5.24390244,6.29977481 0.772357724,5.81205031 0.731707317,5.81205031 C0.447154472,5.7714066 0.243902439,5.52754435 0.284552846,5.24303839 C0.325203252,4.95853243 0.569105691,4.75531389 0.853658537,4.7959576 C0.93495935,4.7959576 10.7723577,5.89333773 21.097561,4.7959576 C21.3821138,4.75531389 21.6260163,4.95853243 21.6666667,5.24303839 C21.7073171,5.52754435 21.504065,5.7714066 21.2195122,5.81205031 C17.7235772,6.17784369 14.3089431,6.29977481 11.300813,6.29977481 Z" id="Shape"></path></g><path d="M32.1544715,58.689515 C32.1544715,58.689515 30.203252,65.5583018 24.7154472,65.5989455 C24.7154472,65.5989455 24.0243902,64.3389905 23.4146341,64.7860713 C22.804878,65.2331521 22.4796748,66.493107 23.4146341,67.0214753 C23.4146341,67.0214753 24.8780488,71.0045587 21.2601626,71.1671335 C13.495935,71.5329269 14.4715447,58.1205031 18.6585366,54.7064316 C21.4634146,52.4303839 25.1219512,52.6742462 28.3739837,53.81227 C30.1219512,54.4625693 32.804878,56.4134673 32.1544715,58.689515 Z" id="Shape" fill="#1A2F50" fill-rule="nonzero"></path><ellipse id="Oval" fill="#1A2F50" fill-rule="nonzero" cx="14.5934959" cy="59.3804581" rx="4.14634146" ry="4.14565826"></ellipse></g></g></svg>